<svg width="204" height="134" viewBox="0 0 204 134" fill="none" xmlns="http://www.w3.org/2000/svg">
<g filter="url(#filter0_d_1_111)">
<path d="M98.0407 2C78.7857 25.3106 66.6863 27.4621 41.6165 2C37.2301 61.7359 47.9711 116.128 98.0407 117.158C148.631 118.2 158.662 54.5918 157.435 2C132.403 25.0927 119.188 27.7859 98.0407 2Z" fill="#FDFDFD" stroke="black"/>
<path d="M48.8751 62.054H98.3701V110.559C67.4728 106.955 57 94.8639 48.8751 62.054Z" fill="#FDFDFD" stroke="black"/>
<path d="M147.865 62.054H98.3702V110.559C129.267 106.955 139.74 94.8639 147.865 62.054Z" fill="#141138" stroke="black"/>
<path d="M98.0268 12.8889L99.0167 61.7239M98.0268 110.559L99.0167 61.7239M99.0167 61.7239H47.8853M99.0167 61.7239H147.865" stroke="black"/>
<path d="M98.0398 12.5588L99.0297 61.7238H48.5448C46.0825 42.5009 45.4209 31.7323 46.895 12.5588C67.0494 32.1283 78.271 34.891 98.0398 12.5588Z" fill="#141138" stroke="#141138"/>
<path d="M98.7002 12.5588L97.7103 61.7238H148.195C150.657 42.5009 151.319 31.7323 149.845 12.5588C129.691 32.1283 118.469 34.891 98.7002 12.5588Z" fill="#FDFDFD" stroke="#141138"/>
<path d="M75.2498 43.7812L80.9998 29.8125H89.6248V30.3906H88.9373C88.3123 30.3906 87.8123 30.5 87.4373 30.7188C87.1768 30.8646 86.9685 31.1094 86.8123 31.4531C86.6977 31.7031 86.6404 32.3542 86.6404 33.4062V47.375C86.6404 48.4583 86.6977 49.1354 86.8123 49.4062C86.9268 49.6771 87.1612 49.9167 87.5154 50.125C87.8695 50.3229 88.3435 50.4219 88.9373 50.4219H89.6248V51H78.5623V50.4219H79.2498C79.8748 50.4219 80.3748 50.3125 80.7498 50.0938C81.0102 49.9479 81.2185 49.6979 81.3748 49.3438C81.4893 49.0938 81.5466 48.4375 81.5466 47.375V31.6719L73.4216 51H73.0466L64.7966 31.8125V46.7344C64.7966 47.776 64.8227 48.4167 64.8748 48.6562C65.0102 49.1771 65.3018 49.6042 65.7498 49.9375C66.2081 50.2604 66.9216 50.4219 67.8904 50.4219V51H60.6404V50.4219H60.8591C61.3279 50.4323 61.7654 50.3594 62.1716 50.2031C62.5779 50.0365 62.8852 49.8177 63.0935 49.5469C63.3018 49.276 63.4633 48.8958 63.5779 48.4062C63.5987 48.2917 63.6091 47.7604 63.6091 46.8125V33.4062C63.6091 32.3333 63.5518 31.6667 63.4373 31.4062C63.3227 31.1354 63.0883 30.901 62.7341 30.7031C62.38 30.4948 61.906 30.3906 61.3123 30.3906H60.6404V29.8125H69.2966L75.2498 43.7812Z" fill="#FDFDFD"/>
<path d="M81.031 70.3281L81.2029 77.3906H80.5623C80.2602 75.6198 79.5154 74.1979 78.3279 73.125C77.1508 72.0417 75.8748 71.5 74.4998 71.5C73.4373 71.5 72.5935 71.7865 71.9685 72.3594C71.3539 72.9219 71.0466 73.5729 71.0466 74.3125C71.0466 74.7812 71.156 75.1979 71.3748 75.5625C71.6768 76.0521 72.1612 76.5365 72.8279 77.0156C73.3175 77.3594 74.4477 77.9688 76.2185 78.8438C78.6977 80.0625 80.3695 81.2135 81.2341 82.2969C82.0883 83.3802 82.5154 84.6198 82.5154 86.0156C82.5154 87.7865 81.8227 89.3125 80.4373 90.5938C79.0623 91.8646 77.3123 92.5 75.1873 92.5C74.5206 92.5 73.8904 92.4323 73.2966 92.2969C72.7029 92.1615 71.9581 91.9062 71.0623 91.5312C70.5623 91.3229 70.1508 91.2188 69.8279 91.2188C69.557 91.2188 69.2706 91.3229 68.9685 91.5312C68.6664 91.7396 68.4216 92.0573 68.2341 92.4844H67.656V84.4844H68.2341C68.6925 86.7344 69.5727 88.4531 70.8748 89.6406C72.1873 90.8177 73.5987 91.4062 75.1091 91.4062C76.2758 91.4062 77.2029 91.0885 77.8904 90.4531C78.5883 89.8177 78.9373 89.0781 78.9373 88.2344C78.9373 87.7344 78.8018 87.25 78.531 86.7812C78.2706 86.3125 77.8695 85.8698 77.3279 85.4531C76.7862 85.026 75.8279 84.474 74.4529 83.7969C72.5258 82.849 71.1404 82.0417 70.2966 81.375C69.4529 80.7083 68.8018 79.9635 68.3435 79.1406C67.8956 78.3177 67.6716 77.4115 67.6716 76.4219C67.6716 74.7344 68.2914 73.2969 69.531 72.1094C70.7706 70.9219 72.3331 70.3281 74.2185 70.3281C74.906 70.3281 75.5727 70.4115 76.2185 70.5781C76.7081 70.7031 77.3018 70.9375 77.9998 71.2812C78.7081 71.6146 79.2029 71.7812 79.4841 71.7812C79.755 71.7812 79.9685 71.6979 80.1248 71.5312C80.281 71.3646 80.4268 70.9635 80.5623 70.3281H81.031Z" fill="#141138"/>
<path d="M124.64 42.4062V48.2812C124.64 49.4271 124.708 50.151 124.844 50.4531C124.989 50.7448 125.239 50.9792 125.594 51.1562C125.958 51.3333 126.62 51.4219 127.578 51.4219V52H116.812V51.4219C117.791 51.4219 118.453 51.3333 118.797 51.1562C119.151 50.9688 119.396 50.7292 119.531 50.4375C119.677 50.1458 119.75 49.4271 119.75 48.2812V34.5312C119.75 33.3854 119.677 32.6667 119.531 32.375C119.396 32.0729 119.151 31.8333 118.797 31.6562C118.442 31.4792 117.781 31.3906 116.812 31.3906V30.8125H126.047C129.088 30.8125 131.271 31.3542 132.594 32.4375C133.916 33.5208 134.578 34.875 134.578 36.5C134.578 37.875 134.151 39.0521 133.297 40.0312C132.442 41.0104 131.265 41.6771 129.765 42.0312C128.755 42.2812 127.047 42.4062 124.64 42.4062ZM124.64 32.0312V41.1875C124.984 41.2083 125.245 41.2188 125.422 41.2188C126.692 41.2188 127.672 40.8438 128.359 40.0938C129.047 39.3333 129.39 38.1615 129.39 36.5781C129.39 35.0052 129.047 33.8542 128.359 33.125C127.672 32.3958 126.646 32.0312 125.281 32.0312H124.64Z" fill="#141138"/>
<path d="M12.2492 101.32L4 94.7206H36.0067L27.0976 101.32H172.613L163.374 94.7206H200L194.391 101.32L200 109.569L180.202 115.508V125.737H27.0976V115.508L4 109.569L12.2492 101.32Z" fill="#660113"/>
<path d="M38.125 115.586V117.07C38.125 117.357 38.1419 117.538 38.1758 117.613C38.2122 117.686 38.2747 117.745 38.3633 117.789C38.4518 117.833 38.6172 117.855 38.8594 117.855V118H36.1484V117.855C36.3932 117.855 36.5586 117.833 36.6445 117.789C36.7331 117.742 36.7943 117.682 36.8281 117.609C36.8646 117.536 36.8828 117.357 36.8828 117.07V113.633C36.8828 113.346 36.8646 113.167 36.8281 113.094C36.7943 113.018 36.7331 112.958 36.6445 112.914C36.556 112.87 36.3906 112.848 36.1484 112.848V112.703H38.6094C39.25 112.703 39.7188 112.747 40.0156 112.836C40.3125 112.924 40.5547 113.089 40.7422 113.328C40.9297 113.565 41.0234 113.844 41.0234 114.164C41.0234 114.555 40.8828 114.878 40.6016 115.133C40.4219 115.294 40.1706 115.415 39.8477 115.496L41.1211 117.289C41.2878 117.521 41.4062 117.665 41.4766 117.723C41.5833 117.803 41.707 117.848 41.8477 117.855V118H40.1797L38.4727 115.586H38.125ZM38.125 112.988V115.309H38.3477C38.7096 115.309 38.9805 115.276 39.1602 115.211C39.3398 115.143 39.4805 115.023 39.582 114.852C39.6862 114.677 39.7383 114.451 39.7383 114.172C39.7383 113.768 39.6432 113.47 39.4531 113.277C39.2656 113.085 38.9622 112.988 38.543 112.988H38.125ZM45.1094 116.492H43.2383L43.0156 117.008C42.9427 117.18 42.9062 117.322 42.9062 117.434C42.9062 117.582 42.9661 117.691 43.0859 117.762C43.1562 117.803 43.3294 117.835 43.6055 117.855V118H41.8438V117.855C42.0339 117.827 42.1901 117.749 42.3125 117.621C42.4349 117.491 42.5859 117.224 42.7656 116.82L44.6602 112.594H44.7344L46.6445 116.938C46.8268 117.349 46.9766 117.608 47.0938 117.715C47.1823 117.796 47.3073 117.842 47.4688 117.855V118H44.9062V117.855H45.0117C45.2174 117.855 45.362 117.827 45.4453 117.77C45.5026 117.728 45.5312 117.668 45.5312 117.59C45.5312 117.543 45.5234 117.495 45.5078 117.445C45.5026 117.422 45.4635 117.324 45.3906 117.152L45.1094 116.492ZM44.9766 116.203L44.1875 114.379L43.375 116.203H44.9766ZM50.4922 117.855V118H47.7227V117.855H47.8984C48.0521 117.855 48.1758 117.828 48.2695 117.773C48.3372 117.737 48.3893 117.674 48.4258 117.586C48.4544 117.523 48.4688 117.359 48.4688 117.094V113.609C48.4688 113.339 48.4544 113.169 48.4258 113.102C48.3971 113.034 48.3385 112.975 48.25 112.926C48.1641 112.874 48.0469 112.848 47.8984 112.848H47.7227V112.703H50.4922V112.848H50.3164C50.1628 112.848 50.0391 112.875 49.9453 112.93C49.8776 112.966 49.8242 113.029 49.7852 113.117C49.7565 113.18 49.7422 113.344 49.7422 113.609V117.094C49.7422 117.365 49.7565 117.534 49.7852 117.602C49.8164 117.669 49.875 117.729 49.9609 117.781C50.0495 117.831 50.168 117.855 50.3164 117.855H50.4922ZM54.4375 112.582L54.4805 114.348H54.3203C54.2448 113.905 54.0586 113.549 53.7617 113.281C53.4674 113.01 53.1484 112.875 52.8047 112.875C52.5391 112.875 52.3281 112.947 52.1719 113.09C52.0182 113.23 51.9414 113.393 51.9414 113.578C51.9414 113.695 51.9688 113.799 52.0234 113.891C52.099 114.013 52.2201 114.134 52.3867 114.254C52.5091 114.34 52.7917 114.492 53.2344 114.711C53.8542 115.016 54.2721 115.303 54.4883 115.574C54.7018 115.845 54.8086 116.155 54.8086 116.504C54.8086 116.947 54.6354 117.328 54.2891 117.648C53.9453 117.966 53.5078 118.125 52.9766 118.125C52.8099 118.125 52.6523 118.108 52.5039 118.074C52.3555 118.04 52.1693 117.977 51.9453 117.883C51.8203 117.831 51.7174 117.805 51.6367 117.805C51.569 117.805 51.4974 117.831 51.4219 117.883C51.3464 117.935 51.2852 118.014 51.2383 118.121H51.0938V116.121H51.2383C51.3529 116.684 51.5729 117.113 51.8984 117.41C52.2266 117.704 52.5794 117.852 52.957 117.852C53.2487 117.852 53.4805 117.772 53.6523 117.613C53.8268 117.454 53.9141 117.27 53.9141 117.059C53.9141 116.934 53.8802 116.812 53.8125 116.695C53.7474 116.578 53.6471 116.467 53.5117 116.363C53.3763 116.257 53.1367 116.118 52.793 115.949C52.3112 115.712 51.9648 115.51 51.7539 115.344C51.543 115.177 51.3802 114.991 51.2656 114.785C51.1536 114.579 51.0977 114.353 51.0977 114.105C51.0977 113.684 51.2526 113.324 51.5625 113.027C51.8724 112.73 52.263 112.582 52.7344 112.582C52.9062 112.582 53.0729 112.603 53.2344 112.645C53.3568 112.676 53.5052 112.734 53.6797 112.82C53.8568 112.904 53.9805 112.945 54.0508 112.945C54.1185 112.945 54.1719 112.924 54.2109 112.883C54.25 112.841 54.2865 112.741 54.3203 112.582H54.4375ZM58.0625 117.855V118H55.293V117.855H55.4688C55.6224 117.855 55.7461 117.828 55.8398 117.773C55.9076 117.737 55.9596 117.674 55.9961 117.586C56.0247 117.523 56.0391 117.359 56.0391 117.094V113.609C56.0391 113.339 56.0247 113.169 55.9961 113.102C55.9674 113.034 55.9089 112.975 55.8203 112.926C55.7344 112.874 55.6172 112.848 55.4688 112.848H55.293V112.703H58.0625V112.848H57.8867C57.7331 112.848 57.6094 112.875 57.5156 112.93C57.4479 112.966 57.3945 113.029 57.3555 113.117C57.3268 113.18 57.3125 113.344 57.3125 113.609V117.094C57.3125 117.365 57.3268 117.534 57.3555 117.602C57.3867 117.669 57.4453 117.729 57.5312 117.781C57.6198 117.831 57.7383 117.855 57.8867 117.855H58.0625ZM60.2422 112.703L62.8555 115.988V113.711C62.8555 113.393 62.8099 113.178 62.7188 113.066C62.5938 112.915 62.3841 112.842 62.0898 112.848V112.703H63.8398V112.848C63.6159 112.876 63.4648 112.914 63.3867 112.961C63.3112 113.005 63.2513 113.079 63.207 113.184C63.1654 113.285 63.1445 113.461 63.1445 113.711V118.121H63.0117L59.4297 113.711V117.078C59.4297 117.383 59.4987 117.589 59.6367 117.695C59.7773 117.802 59.9375 117.855 60.1172 117.855H60.2422V118H58.3633V117.855C58.6549 117.853 58.8581 117.793 58.9727 117.676C59.0872 117.559 59.1445 117.359 59.1445 117.078V113.34L59.0312 113.199C58.9193 113.059 58.8203 112.966 58.7344 112.922C58.6484 112.878 58.5247 112.853 58.3633 112.848V112.703H60.2422ZM69.5508 112.582V114.449H69.4062C69.2318 113.939 68.9701 113.551 68.6211 113.285C68.2721 113.02 67.8906 112.887 67.4766 112.887C67.0807 112.887 66.7513 112.999 66.4883 113.223C66.2253 113.444 66.0391 113.754 65.9297 114.152C65.8203 114.551 65.7656 114.96 65.7656 115.379C65.7656 115.887 65.8255 116.332 65.9453 116.715C66.0651 117.098 66.2578 117.379 66.5234 117.559C66.7917 117.738 67.1094 117.828 67.4766 117.828C67.6042 117.828 67.7344 117.815 67.8672 117.789C68.0026 117.76 68.1406 117.72 68.2812 117.668V116.566C68.2812 116.358 68.2669 116.224 68.2383 116.164C68.2096 116.102 68.1497 116.046 68.0586 115.996C67.9701 115.947 67.862 115.922 67.7344 115.922H67.5977V115.777H70.1719V115.922C69.9766 115.935 69.8398 115.962 69.7617 116.004C69.6862 116.043 69.6276 116.109 69.5859 116.203C69.5625 116.253 69.5508 116.374 69.5508 116.566V117.668C69.2122 117.819 68.8594 117.932 68.4922 118.008C68.1276 118.086 67.7487 118.125 67.3555 118.125C66.8529 118.125 66.4349 118.057 66.1016 117.922C65.7708 117.784 65.4779 117.604 65.2227 117.383C64.9701 117.159 64.7721 116.908 64.6289 116.629C64.4466 116.27 64.3555 115.867 64.3555 115.422C64.3555 114.625 64.6354 113.952 65.1953 113.402C65.7552 112.853 66.4596 112.578 67.3086 112.578C67.5716 112.578 67.8086 112.599 68.0195 112.641C68.1341 112.661 68.319 112.721 68.5742 112.82C68.832 112.917 68.9844 112.965 69.0312 112.965C69.1042 112.965 69.1719 112.939 69.2344 112.887C69.2969 112.832 69.3542 112.73 69.4062 112.582H69.5508ZM77.1562 112.703V114.137H77.0156C76.9323 113.806 76.8398 113.569 76.7383 113.426C76.6367 113.28 76.4974 113.164 76.3203 113.078C76.2214 113.031 76.0482 113.008 75.8008 113.008H75.4062V117.094C75.4062 117.365 75.4206 117.534 75.4492 117.602C75.4805 117.669 75.5391 117.729 75.625 117.781C75.7135 117.831 75.8333 117.855 75.9844 117.855H76.1602V118H73.3867V117.855H73.5625C73.7161 117.855 73.8398 117.828 73.9336 117.773C74.0013 117.737 74.0547 117.674 74.0938 117.586C74.1224 117.523 74.1367 117.359 74.1367 117.094V113.008H73.7539C73.3971 113.008 73.138 113.083 72.9766 113.234C72.75 113.445 72.6068 113.746 72.5469 114.137H72.3984V112.703H77.1562ZM80.3867 112.629C81.2305 112.598 81.9154 112.844 82.4414 113.367C82.9701 113.891 83.2344 114.546 83.2344 115.332C83.2344 116.004 83.0378 116.595 82.6445 117.105C82.1237 117.783 81.388 118.121 80.4375 118.121C79.4844 118.121 78.7474 117.798 78.2266 117.152C77.8151 116.642 77.6094 116.036 77.6094 115.336C77.6094 114.549 77.8763 113.895 78.4102 113.371C78.9466 112.845 79.6055 112.598 80.3867 112.629ZM80.4336 112.879C79.9492 112.879 79.5807 113.126 79.3281 113.621C79.1224 114.027 79.0195 114.611 79.0195 115.371C79.0195 116.275 79.1784 116.943 79.4961 117.375C79.7174 117.677 80.0273 117.828 80.4258 117.828C80.694 117.828 80.918 117.763 81.0977 117.633C81.3268 117.466 81.5052 117.201 81.6328 116.836C81.7604 116.469 81.8242 115.991 81.8242 115.402C81.8242 114.702 81.7591 114.178 81.6289 113.832C81.4987 113.483 81.332 113.237 81.1289 113.094C80.9284 112.951 80.6966 112.879 80.4336 112.879ZM87.7109 115.453V117.094C87.7109 117.365 87.7253 117.534 87.7539 117.602C87.7852 117.669 87.8438 117.729 87.9297 117.781C88.0182 117.831 88.1367 117.855 88.2852 117.855H88.4609V118H85.6914V117.855H85.8672C86.0208 117.855 86.1445 117.828 86.2383 117.773C86.306 117.737 86.3581 117.674 86.3945 117.586C86.4232 117.523 86.4375 117.359 86.4375 117.094V113.609C86.4375 113.339 86.4232 113.169 86.3945 113.102C86.3659 113.034 86.3073 112.975 86.2188 112.926C86.1328 112.874 86.0156 112.848 85.8672 112.848H85.6914V112.703H88.4609V112.848H88.2852C88.1315 112.848 88.0078 112.875 87.9141 112.93C87.8464 112.966 87.793 113.029 87.7539 113.117C87.7253 113.18 87.7109 113.344 87.7109 113.609V115.109H89.582V113.609C89.582 113.339 89.5677 113.169 89.5391 113.102C89.5104 113.034 89.4518 112.975 89.3633 112.926C89.2747 112.874 89.1562 112.848 89.0078 112.848H88.8359V112.703H91.6016V112.848H91.4297C91.2734 112.848 91.1497 112.875 91.0586 112.93C90.9909 112.966 90.9375 113.029 90.8984 113.117C90.8698 113.18 90.8555 113.344 90.8555 113.609V117.094C90.8555 117.365 90.8698 117.534 90.8984 117.602C90.9271 117.669 90.9857 117.729 91.0742 117.781C91.1628 117.831 91.2812 117.855 91.4297 117.855H91.6016V118H88.8359V117.855H89.0078C89.1641 117.855 89.2878 117.828 89.3789 117.773C89.4466 117.737 89.5 117.674 89.5391 117.586C89.5677 117.523 89.582 117.359 89.582 117.094V115.453H87.7109ZM94.6797 117.855V118H91.9102V117.855H92.0859C92.2396 117.855 92.3633 117.828 92.457 117.773C92.5247 117.737 92.5768 117.674 92.6133 117.586C92.6419 117.523 92.6562 117.359 92.6562 117.094V113.609C92.6562 113.339 92.6419 113.169 92.6133 113.102C92.5846 113.034 92.526 112.975 92.4375 112.926C92.3516 112.874 92.2344 112.848 92.0859 112.848H91.9102V112.703H94.6797V112.848H94.5039C94.3503 112.848 94.2266 112.875 94.1328 112.93C94.0651 112.966 94.0117 113.029 93.9727 113.117C93.944 113.18 93.9297 113.344 93.9297 113.609V117.094C93.9297 117.365 93.944 117.534 93.9727 117.602C94.0039 117.669 94.0625 117.729 94.1484 117.781C94.237 117.831 94.3555 117.855 94.5039 117.855H94.6797ZM100.387 112.582V114.449H100.242C100.068 113.939 99.806 113.551 99.457 113.285C99.1081 113.02 98.7266 112.887 98.3125 112.887C97.9167 112.887 97.5872 112.999 97.3242 113.223C97.0612 113.444 96.875 113.754 96.7656 114.152C96.6562 114.551 96.6016 114.96 96.6016 115.379C96.6016 115.887 96.6615 116.332 96.7812 116.715C96.901 117.098 97.0938 117.379 97.3594 117.559C97.6276 117.738 97.9453 117.828 98.3125 117.828C98.4401 117.828 98.5703 117.815 98.7031 117.789C98.8385 117.76 98.9766 117.72 99.1172 117.668V116.566C99.1172 116.358 99.1029 116.224 99.0742 116.164C99.0456 116.102 98.9857 116.046 98.8945 115.996C98.806 115.947 98.6979 115.922 98.5703 115.922H98.4336V115.777H101.008V115.922C100.812 115.935 100.676 115.962 100.598 116.004C100.522 116.043 100.464 116.109 100.422 116.203C100.398 116.253 100.387 116.374 100.387 116.566V117.668C100.048 117.819 99.6953 117.932 99.3281 118.008C98.9635 118.086 98.5846 118.125 98.1914 118.125C97.6888 118.125 97.2708 118.057 96.9375 117.922C96.6068 117.784 96.3138 117.604 96.0586 117.383C95.806 117.159 95.6081 116.908 95.4648 116.629C95.2826 116.27 95.1914 115.867 95.1914 115.422C95.1914 114.625 95.4714 113.952 96.0312 113.402C96.5911 112.853 97.2956 112.578 98.1445 112.578C98.4076 112.578 98.6445 112.599 98.8555 112.641C98.9701 112.661 99.1549 112.721 99.4102 112.82C99.668 112.917 99.8203 112.965 99.8672 112.965C99.9401 112.965 100.008 112.939 100.07 112.887C100.133 112.832 100.19 112.73 100.242 112.582H100.387ZM103.281 115.453V117.094C103.281 117.365 103.296 117.534 103.324 117.602C103.355 117.669 103.414 117.729 103.5 117.781C103.589 117.831 103.707 117.855 103.855 117.855H104.031V118H101.262V117.855H101.438C101.591 117.855 101.715 117.828 101.809 117.773C101.876 117.737 101.928 117.674 101.965 117.586C101.993 117.523 102.008 117.359 102.008 117.094V113.609C102.008 113.339 101.993 113.169 101.965 113.102C101.936 113.034 101.878 112.975 101.789 112.926C101.703 112.874 101.586 112.848 101.438 112.848H101.262V112.703H104.031V112.848H103.855C103.702 112.848 103.578 112.875 103.484 112.93C103.417 112.966 103.363 113.029 103.324 113.117C103.296 113.18 103.281 113.344 103.281 113.609V115.109H105.152V113.609C105.152 113.339 105.138 113.169 105.109 113.102C105.081 113.034 105.022 112.975 104.934 112.926C104.845 112.874 104.727 112.848 104.578 112.848H104.406V112.703H107.172V112.848H107C106.844 112.848 106.72 112.875 106.629 112.93C106.561 112.966 106.508 113.029 106.469 113.117C106.44 113.18 106.426 113.344 106.426 113.609V117.094C106.426 117.365 106.44 117.534 106.469 117.602C106.497 117.669 106.556 117.729 106.645 117.781C106.733 117.831 106.852 117.855 107 117.855H107.172V118H104.406V117.855H104.578C104.734 117.855 104.858 117.828 104.949 117.773C105.017 117.737 105.07 117.674 105.109 117.586C105.138 117.523 105.152 117.359 105.152 117.094V115.453H103.281ZM109.5 113.008V115.164H109.605C109.941 115.164 110.185 115.059 110.336 114.848C110.487 114.637 110.583 114.326 110.625 113.914H110.773V116.688H110.625C110.594 116.385 110.527 116.138 110.426 115.945C110.327 115.753 110.211 115.624 110.078 115.559C109.945 115.491 109.753 115.457 109.5 115.457V116.949C109.5 117.241 109.512 117.419 109.535 117.484C109.561 117.549 109.608 117.603 109.676 117.645C109.743 117.686 109.853 117.707 110.004 117.707H110.32C110.815 117.707 111.211 117.592 111.508 117.363C111.807 117.134 112.022 116.785 112.152 116.316H112.297L112.059 118H107.48V117.855H107.656C107.81 117.855 107.934 117.828 108.027 117.773C108.095 117.737 108.147 117.674 108.184 117.586C108.212 117.523 108.227 117.359 108.227 117.094V113.609C108.227 113.37 108.22 113.223 108.207 113.168C108.181 113.077 108.133 113.007 108.062 112.957C107.964 112.884 107.828 112.848 107.656 112.848H107.48V112.703H111.914V114.27H111.766C111.69 113.887 111.583 113.612 111.445 113.445C111.31 113.279 111.117 113.156 110.867 113.078C110.721 113.031 110.448 113.008 110.047 113.008H109.5ZM114.781 115.586V117.07C114.781 117.357 114.798 117.538 114.832 117.613C114.868 117.686 114.931 117.745 115.02 117.789C115.108 117.833 115.273 117.855 115.516 117.855V118H112.805V117.855C113.049 117.855 113.215 117.833 113.301 117.789C113.389 117.742 113.451 117.682 113.484 117.609C113.521 117.536 113.539 117.357 113.539 117.07V113.633C113.539 113.346 113.521 113.167 113.484 113.094C113.451 113.018 113.389 112.958 113.301 112.914C113.212 112.87 113.047 112.848 112.805 112.848V112.703H115.266C115.906 112.703 116.375 112.747 116.672 112.836C116.969 112.924 117.211 113.089 117.398 113.328C117.586 113.565 117.68 113.844 117.68 114.164C117.68 114.555 117.539 114.878 117.258 115.133C117.078 115.294 116.827 115.415 116.504 115.496L117.777 117.289C117.944 117.521 118.062 117.665 118.133 117.723C118.24 117.803 118.363 117.848 118.504 117.855V118H116.836L115.129 115.586H114.781ZM114.781 112.988V115.309H115.004C115.366 115.309 115.637 115.276 115.816 115.211C115.996 115.143 116.137 115.023 116.238 114.852C116.342 114.677 116.395 114.451 116.395 114.172C116.395 113.768 116.299 113.47 116.109 113.277C115.922 113.085 115.618 112.988 115.199 112.988H114.781ZM124.195 112.582L124.238 114.348H124.078C124.003 113.905 123.816 113.549 123.52 113.281C123.225 113.01 122.906 112.875 122.562 112.875C122.297 112.875 122.086 112.947 121.93 113.09C121.776 113.23 121.699 113.393 121.699 113.578C121.699 113.695 121.727 113.799 121.781 113.891C121.857 114.013 121.978 114.134 122.145 114.254C122.267 114.34 122.549 114.492 122.992 114.711C123.612 115.016 124.03 115.303 124.246 115.574C124.46 115.845 124.566 116.155 124.566 116.504C124.566 116.947 124.393 117.328 124.047 117.648C123.703 117.966 123.266 118.125 122.734 118.125C122.568 118.125 122.41 118.108 122.262 118.074C122.113 118.04 121.927 117.977 121.703 117.883C121.578 117.831 121.475 117.805 121.395 117.805C121.327 117.805 121.255 117.831 121.18 117.883C121.104 117.935 121.043 118.014 120.996 118.121H120.852V116.121H120.996C121.111 116.684 121.331 117.113 121.656 117.41C121.984 117.704 122.337 117.852 122.715 117.852C123.007 117.852 123.238 117.772 123.41 117.613C123.585 117.454 123.672 117.27 123.672 117.059C123.672 116.934 123.638 116.812 123.57 116.695C123.505 116.578 123.405 116.467 123.27 116.363C123.134 116.257 122.895 116.118 122.551 115.949C122.069 115.712 121.723 115.51 121.512 115.344C121.301 115.177 121.138 114.991 121.023 114.785C120.911 114.579 120.855 114.353 120.855 114.105C120.855 113.684 121.01 113.324 121.32 113.027C121.63 112.73 122.021 112.582 122.492 112.582C122.664 112.582 122.831 112.603 122.992 112.645C123.115 112.676 123.263 112.734 123.438 112.82C123.615 112.904 123.738 112.945 123.809 112.945C123.876 112.945 123.93 112.924 123.969 112.883C124.008 112.841 124.044 112.741 124.078 112.582H124.195ZM129.938 112.703V114.137H129.797C129.714 113.806 129.621 113.569 129.52 113.426C129.418 113.28 129.279 113.164 129.102 113.078C129.003 113.031 128.829 113.008 128.582 113.008H128.188V117.094C128.188 117.365 128.202 117.534 128.23 117.602C128.262 117.669 128.32 117.729 128.406 117.781C128.495 117.831 128.615 117.855 128.766 117.855H128.941V118H126.168V117.855H126.344C126.497 117.855 126.621 117.828 126.715 117.773C126.783 117.737 126.836 117.674 126.875 117.586C126.904 117.523 126.918 117.359 126.918 117.094V113.008H126.535C126.178 113.008 125.919 113.083 125.758 113.234C125.531 113.445 125.388 113.746 125.328 114.137H125.18V112.703H129.938ZM132.961 116.492H131.09L130.867 117.008C130.794 117.18 130.758 117.322 130.758 117.434C130.758 117.582 130.818 117.691 130.938 117.762C131.008 117.803 131.181 117.835 131.457 117.855V118H129.695V117.855C129.885 117.827 130.042 117.749 130.164 117.621C130.286 117.491 130.438 117.224 130.617 116.82L132.512 112.594H132.586L134.496 116.938C134.678 117.349 134.828 117.608 134.945 117.715C135.034 117.796 135.159 117.842 135.32 117.855V118H132.758V117.855H132.863C133.069 117.855 133.214 117.827 133.297 117.77C133.354 117.728 133.383 117.668 133.383 117.59C133.383 117.543 133.375 117.495 133.359 117.445C133.354 117.422 133.315 117.324 133.242 117.152L132.961 116.492ZM132.828 116.203L132.039 114.379L131.227 116.203H132.828ZM137.406 112.703L140.02 115.988V113.711C140.02 113.393 139.974 113.178 139.883 113.066C139.758 112.915 139.548 112.842 139.254 112.848V112.703H141.004V112.848C140.78 112.876 140.629 112.914 140.551 112.961C140.475 113.005 140.415 113.079 140.371 113.184C140.329 113.285 140.309 113.461 140.309 113.711V118.121H140.176L136.594 113.711V117.078C136.594 117.383 136.663 117.589 136.801 117.695C136.941 117.802 137.102 117.855 137.281 117.855H137.406V118H135.527V117.855C135.819 117.853 136.022 117.793 136.137 117.676C136.251 117.559 136.309 117.359 136.309 117.078V113.34L136.195 113.199C136.083 113.059 135.984 112.966 135.898 112.922C135.812 112.878 135.689 112.853 135.527 112.848V112.703H137.406ZM141.301 118V117.855H141.477C141.63 117.855 141.747 117.832 141.828 117.785C141.911 117.736 141.973 117.669 142.012 117.586C142.035 117.531 142.047 117.367 142.047 117.094V113.609C142.047 113.339 142.033 113.169 142.004 113.102C141.975 113.034 141.917 112.975 141.828 112.926C141.742 112.874 141.625 112.848 141.477 112.848H141.301V112.703H143.672C144.305 112.703 144.814 112.789 145.199 112.961C145.671 113.172 146.027 113.491 146.27 113.918C146.514 114.345 146.637 114.828 146.637 115.367C146.637 115.74 146.577 116.083 146.457 116.398C146.337 116.711 146.182 116.97 145.992 117.176C145.802 117.379 145.582 117.543 145.332 117.668C145.085 117.79 144.781 117.885 144.422 117.953C144.263 117.984 144.013 118 143.672 118H141.301ZM143.32 113.004V117.137C143.32 117.355 143.331 117.49 143.352 117.539C143.372 117.589 143.408 117.626 143.457 117.652C143.527 117.691 143.629 117.711 143.762 117.711C144.197 117.711 144.529 117.562 144.758 117.266C145.07 116.865 145.227 116.242 145.227 115.398C145.227 114.719 145.12 114.176 144.906 113.77C144.737 113.452 144.52 113.236 144.254 113.121C144.066 113.04 143.755 113.001 143.32 113.004ZM150.305 116.492H148.434L148.211 117.008C148.138 117.18 148.102 117.322 148.102 117.434C148.102 117.582 148.161 117.691 148.281 117.762C148.352 117.803 148.525 117.835 148.801 117.855V118H147.039V117.855C147.229 117.827 147.385 117.749 147.508 117.621C147.63 117.491 147.781 117.224 147.961 116.82L149.855 112.594H149.93L151.84 116.938C152.022 117.349 152.172 117.608 152.289 117.715C152.378 117.796 152.503 117.842 152.664 117.855V118H150.102V117.855H150.207C150.413 117.855 150.557 117.827 150.641 117.77C150.698 117.728 150.727 117.668 150.727 117.59C150.727 117.543 150.719 117.495 150.703 117.445C150.698 117.422 150.659 117.324 150.586 117.152L150.305 116.492ZM150.172 116.203L149.383 114.379L148.57 116.203H150.172ZM154.883 115.586V117.07C154.883 117.357 154.9 117.538 154.934 117.613C154.97 117.686 155.033 117.745 155.121 117.789C155.21 117.833 155.375 117.855 155.617 117.855V118H152.906V117.855C153.151 117.855 153.316 117.833 153.402 117.789C153.491 117.742 153.552 117.682 153.586 117.609C153.622 117.536 153.641 117.357 153.641 117.07V113.633C153.641 113.346 153.622 113.167 153.586 113.094C153.552 113.018 153.491 112.958 153.402 112.914C153.314 112.87 153.148 112.848 152.906 112.848V112.703H155.367C156.008 112.703 156.477 112.747 156.773 112.836C157.07 112.924 157.312 113.089 157.5 113.328C157.688 113.565 157.781 113.844 157.781 114.164C157.781 114.555 157.641 114.878 157.359 115.133C157.18 115.294 156.928 115.415 156.605 115.496L157.879 117.289C158.046 117.521 158.164 117.665 158.234 117.723C158.341 117.803 158.465 117.848 158.605 117.855V118H156.938L155.23 115.586H154.883ZM154.883 112.988V115.309H155.105C155.467 115.309 155.738 115.276 155.918 115.211C156.098 115.143 156.238 115.023 156.34 114.852C156.444 114.677 156.496 114.451 156.496 114.172C156.496 113.768 156.401 113.47 156.211 113.277C156.023 113.085 155.72 112.988 155.301 112.988H154.883ZM158.645 118V117.855H158.82C158.974 117.855 159.091 117.832 159.172 117.785C159.255 117.736 159.316 117.669 159.355 117.586C159.379 117.531 159.391 117.367 159.391 117.094V113.609C159.391 113.339 159.376 113.169 159.348 113.102C159.319 113.034 159.26 112.975 159.172 112.926C159.086 112.874 158.969 112.848 158.82 112.848H158.645V112.703H161.016C161.648 112.703 162.158 112.789 162.543 112.961C163.014 113.172 163.371 113.491 163.613 113.918C163.858 114.345 163.98 114.828 163.98 115.367C163.98 115.74 163.921 116.083 163.801 116.398C163.681 116.711 163.526 116.97 163.336 117.176C163.146 117.379 162.926 117.543 162.676 117.668C162.428 117.79 162.125 117.885 161.766 117.953C161.607 117.984 161.357 118 161.016 118H158.645ZM160.664 113.004V117.137C160.664 117.355 160.674 117.49 160.695 117.539C160.716 117.589 160.751 117.626 160.801 117.652C160.871 117.691 160.973 117.711 161.105 117.711C161.54 117.711 161.872 117.562 162.102 117.266C162.414 116.865 162.57 116.242 162.57 115.398C162.57 114.719 162.464 114.176 162.25 113.77C162.081 113.452 161.863 113.236 161.598 113.121C161.41 113.04 161.099 113.001 160.664 113.004ZM168.078 112.582L168.121 114.348H167.961C167.885 113.905 167.699 113.549 167.402 113.281C167.108 113.01 166.789 112.875 166.445 112.875C166.18 112.875 165.969 112.947 165.812 113.09C165.659 113.23 165.582 113.393 165.582 113.578C165.582 113.695 165.609 113.799 165.664 113.891C165.74 114.013 165.861 114.134 166.027 114.254C166.15 114.34 166.432 114.492 166.875 114.711C167.495 115.016 167.913 115.303 168.129 115.574C168.342 115.845 168.449 116.155 168.449 116.504C168.449 116.947 168.276 117.328 167.93 117.648C167.586 117.966 167.148 118.125 166.617 118.125C166.451 118.125 166.293 118.108 166.145 118.074C165.996 118.04 165.81 117.977 165.586 117.883C165.461 117.831 165.358 117.805 165.277 117.805C165.21 117.805 165.138 117.831 165.062 117.883C164.987 117.935 164.926 118.014 164.879 118.121H164.734V116.121H164.879C164.993 116.684 165.214 117.113 165.539 117.41C165.867 117.704 166.22 117.852 166.598 117.852C166.889 117.852 167.121 117.772 167.293 117.613C167.467 117.454 167.555 117.27 167.555 117.059C167.555 116.934 167.521 116.812 167.453 116.695C167.388 116.578 167.288 116.467 167.152 116.363C167.017 116.257 166.777 116.118 166.434 115.949C165.952 115.712 165.605 115.51 165.395 115.344C165.184 115.177 165.021 114.991 164.906 114.785C164.794 114.579 164.738 114.353 164.738 114.105C164.738 113.684 164.893 113.324 165.203 113.027C165.513 112.73 165.904 112.582 166.375 112.582C166.547 112.582 166.714 112.603 166.875 112.645C166.997 112.676 167.146 112.734 167.32 112.82C167.497 112.904 167.621 112.945 167.691 112.945C167.759 112.945 167.812 112.924 167.852 112.883C167.891 112.841 167.927 112.741 167.961 112.582H168.078Z" fill="#FDFDFD"/>
</g>
<defs>
<filter id="filter0_d_1_111" x="0" y="0.863037" width="204" height="132.874" filterUnits="userSpaceOnUse" color-interpolation-filters="sRGB">
<feFlood flood-opacity="0" result="BackgroundImageFix"/>
<feColorMatrix in="SourceAlpha" type="matrix" values="0 0 0 0 0 0 0 0 0 0 0 0 0 0 0 0 0 0 127 0" result="hardAlpha"/>
<feOffset dy="4"/>
<feGaussianBlur stdDeviation="2"/>
<feComposite in2="hardAlpha" operator="out"/>
<feColorMatrix type="matrix" values="0 0 0 0 0 0 0 0 0 0 0 0 0 0 0 0 0 0 0.25 0"/>
<feBlend mode="normal" in2="BackgroundImageFix" result="effect1_dropShadow_1_111"/>
<feBlend mode="normal" in="SourceGraphic" in2="effect1_dropShadow_1_111" result="shape"/>
</filter>
</defs>
</svg>
