<svg width="664" height="344" viewBox="0 0 664 344" fill="none" xmlns="http://www.w3.org/2000/svg">
<path d="M659.07 132.95C663.04 136.92 662.97 143.4 658.87 147.29C655.08 150.88 648.93 150.88 645.13 147.29C641.02 143.4 640.95 136.92 644.93 132.95C648.83 129.04 655.17 129.04 659.07 132.95Z" stroke="#B28089" stroke-opacity="0.5" stroke-width="1.5" stroke-linecap="round" stroke-linejoin="round"/>
<path d="M655.84 144.07C653.72 146.07 650.28 146.07 648.17 144.07" stroke="#B28089" stroke-opacity="0.5" stroke-width="1.5" stroke-linecap="round" stroke-linejoin="round"/>
<path d="M652 214C657.523 214 662 209.523 662 204C662 198.477 657.523 194 652 194C646.477 194 642 198.477 642 204C642 209.523 646.477 214 652 214Z" stroke="#292D32" stroke-opacity="0.7" stroke-width="1.5" stroke-linecap="round" stroke-linejoin="round"/>
<path d="M652 206C653.105 206 654 205.105 654 204C654 202.895 653.105 202 652 202C650.895 202 650 202.895 650 204C650 205.105 650.895 206 652 206Z" stroke="#292D32" stroke-opacity="0.7" stroke-width="1.5" stroke-linecap="round" stroke-linejoin="round"/>
<path d="M656.42 327.95C658.86 330.39 658.86 334.35 656.42 336.79C653.98 339.23 650.02 339.23 647.58 336.79C645.14 334.35 645.14 330.39 647.58 327.95C650.02 325.51 653.98 325.51 656.42 327.95Z" stroke="#292D32" stroke-opacity="0.7" stroke-width="1.5" stroke-linecap="round" stroke-linejoin="round"/>
<path d="M648.25 341.64C646.25 340.84 644.5 339.39 643.34 337.38C642.2 335.41 641.82 333.22 642.09 331.13" stroke="#292D32" stroke-opacity="0.7" stroke-width="1.5" stroke-linecap="round" stroke-linejoin="round"/>
<path d="M645.85 324.48C647.55 323.15 649.68 322.36 652 322.36C654.27 322.36 656.36 323.13 658.04 324.41" stroke="#292D32" stroke-opacity="0.7" stroke-width="1.5" stroke-linecap="round" stroke-linejoin="round"/>
<path d="M655.75 341.64C657.75 340.84 659.5 339.39 660.66 337.38C661.8 335.41 662.18 333.22 661.91 331.13" stroke="#292D32" stroke-opacity="0.7" stroke-width="1.5" stroke-linecap="round" stroke-linejoin="round"/>
<path d="M21 5.97998C17.67 5.64998 14.32 5.47998 10.98 5.47998C9 5.47998 7.02 5.57998 5.04 5.77998L3 5.97998" stroke="#B28089" stroke-opacity="0.5" stroke-width="1.5" stroke-linecap="round" stroke-linejoin="round"/>
<path d="M8.5 4.97L8.72 3.66C8.88 2.71 9 2 10.69 2H13.31C15 2 15.13 2.75 15.28 3.67L15.5 4.97" stroke="#B28089" stroke-opacity="0.5" stroke-width="1.5" stroke-linecap="round" stroke-linejoin="round"/>
<path d="M18.85 9.13989L18.2 19.2099C18.09 20.7799 18 21.9999 15.21 21.9999H8.79002C6.00002 21.9999 5.91002 20.7799 5.80002 19.2099L5.15002 9.13989" stroke="#B28089" stroke-opacity="0.5" stroke-width="1.5" stroke-linecap="round" stroke-linejoin="round"/>
<path d="M10.33 16.5H13.66" stroke="#B28089" stroke-opacity="0.5" stroke-width="1.5" stroke-linecap="round" stroke-linejoin="round"/>
<path d="M9.5 12.5H14.5" stroke="#B28089" stroke-opacity="0.5" stroke-width="1.5" stroke-linecap="round" stroke-linejoin="round"/>
<path d="M77 19H71C67 19 66 18 66 14V10C66 6 67 5 71 5H77C81 5 82 6 82 10V14C82 18 81 19 77 19Z" stroke="#292D32" stroke-opacity="0.7" stroke-width="1.5" stroke-linecap="round" stroke-linejoin="round"/>
<path d="M84.5 9.5C86 9.5 86 10 86 11V13C86 14 86 14.5 84.5 14.5" stroke="#292D32" stroke-opacity="0.7" stroke-width="1.5" stroke-linecap="round" stroke-linejoin="round"/>
<path d="M141 19H135C131 19 130 18 130 14V10C130 6 131 5 135 5H141C145 5 146 6 146 10V14C146 18 145 19 141 19Z" stroke="#B28089" stroke-opacity="0.5" stroke-width="1.5" stroke-linecap="round" stroke-linejoin="round"/>
<path d="M148.5 9.5C150 9.5 150 10 150 11V13C150 14 150 14.5 148.5 14.5" stroke="#B28089" stroke-opacity="0.5" stroke-width="1.5" stroke-linecap="round" stroke-linejoin="round"/>
<path d="M134.38 10C134.71 11.31 134.71 12.69 134.38 14" stroke="#B28089" stroke-opacity="0.5" stroke-width="1.5" stroke-linecap="round" stroke-linejoin="round"/>
<path d="M212.5 9.5C214 9.5 214 10 214 11V13C214 14 214 14.5 212.5 14.5" stroke="#292D32" stroke-opacity="0.7" stroke-width="1.5" stroke-linecap="round" stroke-linejoin="round"/>
<path d="M198.38 10C198.71 11.31 198.71 12.69 198.38 14" stroke="#292D32" stroke-opacity="0.7" stroke-width="1.5" stroke-linecap="round" stroke-linejoin="round"/>
<path d="M201.88 10C202.21 11.31 202.21 12.69 201.88 14" stroke="#292D32" stroke-opacity="0.7" stroke-width="1.5" stroke-linecap="round" stroke-linejoin="round"/>
<path d="M205 19H199C195 19 194 18 194 14V10C194 6 195 5 199 5H205C209 5 210 6 210 10V14C210 18 209 19 205 19Z" stroke="#292D32" stroke-opacity="0.7" stroke-width="1.5" stroke-linecap="round" stroke-linejoin="round"/>
<path d="M276.5 9.5C278 9.5 278 10 278 11V13C278 14 278 14.5 276.5 14.5" stroke="#B28089" stroke-opacity="0.5" stroke-width="1.5" stroke-linecap="round" stroke-linejoin="round"/>
<path d="M262.38 10C262.71 11.31 262.71 12.69 262.38 14" stroke="#B28089" stroke-opacity="0.5" stroke-width="1.5" stroke-linecap="round" stroke-linejoin="round"/>
<path d="M265.88 10C266.21 11.31 266.21 12.69 265.88 14" stroke="#B28089" stroke-opacity="0.5" stroke-width="1.5" stroke-linecap="round" stroke-linejoin="round"/>
<path d="M269.38 10C269.71 11.31 269.71 12.69 269.38 14" stroke="#B28089" stroke-opacity="0.5" stroke-width="1.5" stroke-linecap="round" stroke-linejoin="round"/>
<path d="M269 19H263C259 19 258 18 258 14V10C258 6 259 5 263 5H269C273 5 274 6 274 10V14C274 18 273 19 269 19Z" stroke="#B28089" stroke-opacity="0.5" stroke-width="1.5" stroke-linecap="round" stroke-linejoin="round"/>
<path d="M340.5 9.5C342 9.5 342 10 342 11V13C342 14 342 14.5 340.5 14.5" stroke="#292D32" stroke-opacity="0.7" stroke-width="1.5" stroke-linecap="round" stroke-linejoin="round"/>
<path d="M330 8L328.11 10.5C327.72 11.17 328.2 12 328.97 12H331.27C332.04 12 332.52 12.83 332.14 13.5L330 16" stroke="#292D32" stroke-opacity="0.7" stroke-width="1.5" stroke-linecap="round" stroke-linejoin="round"/>
<path d="M327 19C323 19 322 18 322 14V10C322 6 323 5 327 5" stroke="#292D32" stroke-opacity="0.7" stroke-width="1.5" stroke-linecap="round" stroke-linejoin="round"/>
<path d="M333 5C337 5 338 6 338 10V14C338 18 337 19 333 19" stroke="#292D32" stroke-opacity="0.7" stroke-width="1.5" stroke-linecap="round" stroke-linejoin="round"/>
<path d="M404.5 9.5C406 9.5 406 10 406 11V13C406 14 406 14.5 404.5 14.5" stroke="#B28089" stroke-opacity="0.5" stroke-width="1.5" stroke-linecap="round" stroke-linejoin="round"/>
<path d="M388 21.5L400 2.5" stroke="#B28089" stroke-opacity="0.5" stroke-width="1.5" stroke-linecap="round" stroke-linejoin="round"/>
<path d="M391 5C387 5 386 6 386 10V14C386 17.4 386.72 18.63 389.39 18.92" stroke="#B28089" stroke-opacity="0.5" stroke-width="1.5" stroke-linecap="round" stroke-linejoin="round"/>
<path d="M397 19.0001C401 19.0001 402 18.0001 402 14.0001V10.0001C402 6.61008 401.28 5.37008 398.63 5.08008" stroke="#B28089" stroke-opacity="0.5" stroke-width="1.5" stroke-linecap="round" stroke-linejoin="round"/>
<path d="M460 18V15" stroke="#292D32" stroke-opacity="0.7" stroke-width="1.5" stroke-linecap="round" stroke-linejoin="round"/>
<path d="M458.07 2.82009L451.14 8.37009C450.36 8.99009 449.86 10.3001 450.03 11.2801L451.36 19.2401C451.6 20.6601 452.96 21.8101 454.4 21.8101H465.6C467.03 21.8101 468.4 20.6501 468.64 19.2401L469.97 11.2801C470.13 10.3001 469.63 8.99009 468.86 8.37009L461.93 2.83009C460.86 1.97009 459.13 1.97009 458.07 2.82009Z" stroke="#292D32" stroke-opacity="0.7" stroke-width="1.5" stroke-linecap="round" stroke-linejoin="round"/>
<path d="M521.02 2.83992L515.63 7.03992C514.73 7.73992 514 9.22992 514 10.3599V17.7699C514 20.0899 515.89 21.9899 518.21 21.9899H529.79C532.11 21.9899 534 20.0899 534 17.7799V10.4999C534 9.28992 533.19 7.73992 532.2 7.04992L526.02 2.71992C524.62 1.73992 522.37 1.78992 521.02 2.83992Z" stroke="#B28089" stroke-opacity="0.5" stroke-width="1.5" stroke-linecap="round" stroke-linejoin="round"/>
<path d="M524 17.99V14.99" stroke="#B28089" stroke-opacity="0.5" stroke-width="1.5" stroke-linecap="round" stroke-linejoin="round"/>
<path d="M585 22H591C596 22 598 20 598 15V9C598 4 596 2 591 2H585C580 2 578 4 578 9V15C578 20 580 22 585 22Z" stroke="#292D32" stroke-opacity="0.7" stroke-width="1.5" stroke-linecap="round" stroke-linejoin="round"/>
<path d="M591.996 12H592.005" stroke="#292D32" stroke-opacity="0.7" stroke-width="2" stroke-linecap="round" stroke-linejoin="round"/>
<path d="M587.995 12H588.004" stroke="#292D32" stroke-opacity="0.7" stroke-width="2" stroke-linecap="round" stroke-linejoin="round"/>
<path d="M583.995 12H584.003" stroke="#292D32" stroke-opacity="0.7" stroke-width="2" stroke-linecap="round" stroke-linejoin="round"/>
<path d="M652 22C657.5 22 662 17.5 662 12C662 6.5 657.5 2 652 2C646.5 2 642 6.5 642 12C642 17.5 646.5 22 652 22Z" stroke="#B28089" stroke-opacity="0.5" stroke-width="1.5" stroke-linecap="round" stroke-linejoin="round"/>
<path d="M647.75 11.9999L650.58 14.8299L656.25 9.16992" stroke="#B28089" stroke-opacity="0.5" stroke-width="1.5" stroke-linecap="round" stroke-linejoin="round"/>
<path d="M12 86C17.5 86 22 81.5 22 76C22 70.5 17.5 66 12 66C6.5 66 2 70.5 2 76C2 81.5 6.5 86 12 86Z" stroke="#292D32" stroke-opacity="0.7" stroke-width="1.5" stroke-linecap="round" stroke-linejoin="round"/>
<path d="M8 76H16" stroke="#292D32" stroke-opacity="0.7" stroke-width="1.5" stroke-linecap="round" stroke-linejoin="round"/>
<path d="M12 80V72" stroke="#292D32" stroke-opacity="0.7" stroke-width="1.5" stroke-linecap="round" stroke-linejoin="round"/>
<path d="M75.92 86C81.42 86 85.92 81.5 85.92 76C85.92 70.5 81.42 66 75.92 66C70.42 66 65.92 70.5 65.92 76C65.92 81.5 70.42 86 75.92 86Z" stroke="#B28089" stroke-opacity="0.5" stroke-width="1.5" stroke-linecap="round" stroke-linejoin="round"/>
<path d="M71.92 76H79.92" stroke="#B28089" stroke-opacity="0.5" stroke-width="1.5" stroke-linecap="round" stroke-linejoin="round"/>
<path d="M140 86C145.5 86 150 81.5 150 76C150 70.5 145.5 66 140 66C134.5 66 130 70.5 130 76C130 81.5 134.5 86 140 86Z" stroke="#292D32" stroke-opacity="0.7" stroke-width="1.5" stroke-linecap="round" stroke-linejoin="round"/>
<path d="M137.17 78.8299L142.83 73.1699" stroke="#292D32" stroke-opacity="0.7" stroke-width="1.5" stroke-linecap="round" stroke-linejoin="round"/>
<path d="M142.83 78.8299L137.17 73.1699" stroke="#292D32" stroke-opacity="0.7" stroke-width="1.5" stroke-linecap="round" stroke-linejoin="round"/>
<path d="M204 86C209.5 86 214 81.5 214 76C214 70.5 209.5 66 204 66C198.5 66 194 70.5 194 76C194 81.5 198.5 86 204 86Z" stroke="#B28089" stroke-opacity="0.5" stroke-width="1.5" stroke-linecap="round" stroke-linejoin="round"/>
<path d="M207.996 76H208.005" stroke="#B28089" stroke-opacity="0.5" stroke-width="2" stroke-linecap="round" stroke-linejoin="round"/>
<path d="M203.995 76H204.004" stroke="#B28089" stroke-opacity="0.5" stroke-width="2" stroke-linecap="round" stroke-linejoin="round"/>
<path d="M199.995 76H200.003" stroke="#B28089" stroke-opacity="0.5" stroke-width="2" stroke-linecap="round" stroke-linejoin="round"/>
<path d="M268 86C273.5 86 278 81.5 278 76C278 70.5 273.5 66 268 66C262.5 66 258 70.5 258 76C258 81.5 262.5 86 268 86Z" stroke="#292D32" stroke-opacity="0.7" stroke-width="1.5" stroke-linecap="round" stroke-linejoin="round"/>
<path d="M268 72V77" stroke="#292D32" stroke-opacity="0.7" stroke-width="1.5" stroke-linecap="round" stroke-linejoin="round"/>
<path d="M267.995 80H268.003" stroke="#292D32" stroke-opacity="0.7" stroke-width="2" stroke-linecap="round" stroke-linejoin="round"/>
<path d="M332 73V78" stroke="#B28089" stroke-opacity="0.5" stroke-width="1.5" stroke-linecap="round" stroke-linejoin="round"/>
<path d="M332 85.41H325.94C322.47 85.41 321.02 82.93 322.7 79.9L325.82 74.28L328.76 69C330.54 65.79 333.46 65.79 335.24 69L338.18 74.29L341.3 79.91C342.98 82.94 341.52 85.42 338.06 85.42H332V85.41Z" stroke="#B28089" stroke-opacity="0.5" stroke-width="1.5" stroke-linecap="round" stroke-linejoin="round"/>
<path d="M331.995 81H332.003" stroke="#B28089" stroke-opacity="0.5" stroke-width="2" stroke-linecap="round" stroke-linejoin="round"/>
<path d="M390 76H402" stroke="#292D32" stroke-opacity="0.7" stroke-width="1.5" stroke-linecap="round" stroke-linejoin="round"/>
<path d="M396 82V70" stroke="#292D32" stroke-opacity="0.7" stroke-width="1.5" stroke-linecap="round" stroke-linejoin="round"/>
<path d="M454 76H466" stroke="#B28089" stroke-opacity="0.5" stroke-width="1.5" stroke-linecap="round" stroke-linejoin="round"/>
<path d="M520 76H528" stroke="#292D32" stroke-opacity="0.7" stroke-width="1.5" stroke-linecap="round" stroke-linejoin="round"/>
<path d="M524 80V72" stroke="#292D32" stroke-opacity="0.7" stroke-width="1.5" stroke-linecap="round" stroke-linejoin="round"/>
<path d="M521 86H527C532 86 534 84 534 79V73C534 68 532 66 527 66H521C516 66 514 68 514 73V79C514 84 516 86 521 86Z" stroke="#292D32" stroke-opacity="0.7" stroke-width="1.5" stroke-linecap="round" stroke-linejoin="round"/>
<path d="M584 76H592" stroke="#B28089" stroke-opacity="0.5" stroke-width="1.5" stroke-linecap="round" stroke-linejoin="round"/>
<path d="M585 86H591C596 86 598 84 598 79V73C598 68 596 66 591 66H585C580 66 578 68 578 73V79C578 84 580 86 585 86Z" stroke="#B28089" stroke-opacity="0.5" stroke-width="1.5" stroke-linecap="round" stroke-linejoin="round"/>
<path d="M649 86H655C660 86 662 84 662 79V73C662 68 660 66 655 66H649C644 66 642 68 642 73V79C642 84 644 86 649 86Z" stroke="#292D32" stroke-opacity="0.7" stroke-width="1.5" stroke-linecap="round" stroke-linejoin="round"/>
<path d="M647.75 75.9999L650.58 78.8299L656.25 73.1699" stroke="#292D32" stroke-opacity="0.7" stroke-width="1.5" stroke-linecap="round" stroke-linejoin="round"/>
<path d="M9.16998 142.83L14.83 137.17" stroke="#B28089" stroke-opacity="0.5" stroke-width="1.5" stroke-linecap="round" stroke-linejoin="round"/>
<path d="M14.83 142.83L9.16998 137.17" stroke="#B28089" stroke-opacity="0.5" stroke-width="1.5" stroke-linecap="round" stroke-linejoin="round"/>
<path d="M9 150H15C20 150 22 148 22 143V137C22 132 20 130 15 130H9C4 130 2 132 2 137V143C2 148 4 150 9 150Z" stroke="#B28089" stroke-opacity="0.5" stroke-width="1.5" stroke-linecap="round" stroke-linejoin="round"/>
<path d="M67 135H85" stroke="#292D32" stroke-opacity="0.7" stroke-width="1.5" stroke-linecap="round"/>
<path d="M70 140H82" stroke="#292D32" stroke-opacity="0.7" stroke-width="1.5" stroke-linecap="round"/>
<path d="M74 145H78" stroke="#292D32" stroke-opacity="0.7" stroke-width="1.5" stroke-linecap="round"/>
<path d="M137.51 132.23L146.07 136.51C149.91 138.43 149.91 141.57 146.07 143.49L137.51 147.77C131.75 150.65 129.4 148.29 132.28 142.54L133.15 140.81C133.37 140.37 133.37 139.64 133.15 139.2L132.28 137.46C129.4 131.71 131.76 129.35 137.51 132.23Z" stroke="#B28089" stroke-opacity="0.5" stroke-width="1.5" stroke-linecap="round" stroke-linejoin="round"/>
<path d="M133.44 140H138.84" stroke="#B28089" stroke-opacity="0.5" stroke-width="1.5" stroke-linecap="round" stroke-linejoin="round"/>
<path d="M199.4 134.32L207.89 131.49C211.7 130.22 213.77 132.3 212.51 136.11L209.68 144.6C207.78 150.31 204.66 150.31 202.76 144.6L201.92 142.08L199.4 141.24C193.69 139.34 193.69 136.23 199.4 134.32Z" stroke="#292D32" stroke-opacity="0.7" stroke-width="1.5" stroke-linecap="round" stroke-linejoin="round"/>
<path d="M202.11 141.65L205.69 138.06" stroke="#292D32" stroke-opacity="0.7" stroke-width="1.5" stroke-linecap="round" stroke-linejoin="round"/>
<path d="M272.96 134.17C274.96 135.56 276.34 137.77 276.62 140.32" stroke="#B28089" stroke-opacity="0.5" stroke-width="1.5" stroke-linecap="round" stroke-linejoin="round"/>
<path d="M259.49 140.37C259.75 137.83 261.11 135.62 263.09 134.22" stroke="#B28089" stroke-opacity="0.5" stroke-width="1.5" stroke-linecap="round" stroke-linejoin="round"/>
<path d="M264.19 148.94C265.35 149.53 266.67 149.86 268.06 149.86C269.4 149.86 270.66 149.56 271.79 149.01" stroke="#B28089" stroke-opacity="0.5" stroke-width="1.5" stroke-linecap="round" stroke-linejoin="round"/>
<path d="M268.06 135.7C269.595 135.7 270.84 134.455 270.84 132.92C270.84 131.385 269.595 130.14 268.06 130.14C266.525 130.14 265.28 131.385 265.28 132.92C265.28 134.455 266.525 135.7 268.06 135.7Z" stroke="#B28089" stroke-opacity="0.5" stroke-width="1.5" stroke-linecap="round" stroke-linejoin="round"/>
<path d="M260.83 147.92C262.365 147.92 263.61 146.675 263.61 145.14C263.61 143.605 262.365 142.36 260.83 142.36C259.295 142.36 258.05 143.605 258.05 145.14C258.05 146.675 259.295 147.92 260.83 147.92Z" stroke="#B28089" stroke-opacity="0.5" stroke-width="1.5" stroke-linecap="round" stroke-linejoin="round"/>
<path d="M275.17 147.92C276.705 147.92 277.95 146.675 277.95 145.14C277.95 143.605 276.705 142.36 275.17 142.36C273.635 142.36 272.39 143.605 272.39 145.14C272.39 146.675 273.635 147.92 275.17 147.92Z" stroke="#B28089" stroke-opacity="0.5" stroke-width="1.5" stroke-linecap="round" stroke-linejoin="round"/>
<path d="M326.09 141.28H329.18V148.48C329.18 150.16 330.09 150.5 331.2 149.24L338.77 140.64C339.7 139.59 339.31 138.72 337.9 138.72H334.81V131.52C334.81 129.84 333.9 129.5 332.79 130.76L325.22 139.36C324.3 140.42 324.69 141.28 326.09 141.28Z" stroke="#292D32" stroke-opacity="0.7" stroke-width="1.5" stroke-miterlimit="10" stroke-linecap="round" stroke-linejoin="round"/>
<path d="M393.18 146.04V148.48C393.18 150.16 394.09 150.5 395.2 149.24L402.77 140.64C403.7 139.59 403.31 138.72 401.9 138.72H400.97" stroke="#B28089" stroke-opacity="0.5" stroke-width="1.5" stroke-miterlimit="10" stroke-linecap="round" stroke-linejoin="round"/>
<path d="M398.82 136.84V131.52C398.82 129.84 397.91 129.5 396.8 130.76L389.23 139.36C388.3 140.41 388.69 141.28 390.1 141.28H393.19V142.46" stroke="#B28089" stroke-opacity="0.5" stroke-width="1.5" stroke-miterlimit="10" stroke-linecap="round" stroke-linejoin="round"/>
<path d="M406 130L386 150" stroke="#B28089" stroke-opacity="0.5" stroke-width="1.5" stroke-linecap="round" stroke-linejoin="round"/>
<path d="M456.68 140.72H458.42V144.77C458.42 145.37 459.16 145.65 459.56 145.2L463.82 140.36C464.19 139.94 463.89 139.28 463.33 139.28H461.59V135.23C461.59 134.63 460.85 134.35 460.45 134.8L456.19 139.64C455.82 140.06 456.12 140.72 456.68 140.72Z" stroke="#292D32" stroke-opacity="0.7" stroke-width="1.5" stroke-miterlimit="10" stroke-linecap="round" stroke-linejoin="round"/>
<path d="M459.97 150C465.493 150 469.97 145.523 469.97 140C469.97 134.477 465.493 130 459.97 130C454.447 130 449.97 134.477 449.97 140C449.97 145.523 454.447 150 459.97 150Z" stroke="#292D32" stroke-opacity="0.7" stroke-width="1.5" stroke-miterlimit="10" stroke-linecap="round" stroke-linejoin="round"/>
<path d="M524 150C529.52 150 534 145.52 534 140C534 134.48 529.52 130 524 130C518.48 130 514 134.48 514 140C514 145.52 518.48 150 524 150Z" stroke="#B28089" stroke-opacity="0.5" stroke-width="1.5" stroke-miterlimit="10" stroke-linecap="round" stroke-linejoin="round"/>
<path d="M530.9 133L516.9 147" stroke="#B28089" stroke-opacity="0.5" stroke-width="1.5" stroke-miterlimit="10" stroke-linecap="round" stroke-linejoin="round"/>
<path d="M578 150H598" stroke="#292D32" stroke-opacity="0.7" stroke-width="1.5" stroke-linecap="round" stroke-linejoin="round"/>
<path d="M579.11 150V141C579.11 139.34 580.6 138 582.44 138H593.55C595.39 138 596.88 139.34 596.88 141V150" stroke="#292D32" stroke-opacity="0.7" stroke-width="1.5" stroke-linecap="round" stroke-linejoin="round"/>
<path d="M581.56 138V135.17C581.56 133.97 582.64 133 583.98 133H592.03C593.36 133 594.44 133.97 594.44 135.17V138" stroke="#292D32" stroke-opacity="0.7" stroke-width="1.5" stroke-linecap="round" stroke-linejoin="round"/>
<path d="M579.53 141.98L579.9 141.99C580.64 142 581.23 142.6 581.23 143.34V143.67C581.23 144.41 581.83 145.02 582.58 145.02C583.32 145.02 583.93 144.42 583.93 143.67V143.36C583.93 142.62 584.53 142.01 585.28 142.01C586.02 142.01 586.63 142.61 586.63 143.36V143.67C586.63 144.41 587.23 145.02 587.98 145.02C588.72 145.02 589.33 144.42 589.33 143.67V143.36C589.33 142.62 589.93 142.01 590.68 142.01C591.42 142.01 592.03 142.61 592.03 143.36V143.67C592.03 144.41 592.63 145.02 593.38 145.02C594.12 145.02 594.73 144.42 594.73 143.67V143.36C594.73 142.62 595.33 142.01 596.08 142.01H596.53" stroke="#292D32" stroke-opacity="0.7" stroke-width="1.5" stroke-linecap="round" stroke-linejoin="round"/>
<path d="M584 133V131" stroke="#292D32" stroke-opacity="0.7" stroke-width="1.5" stroke-linecap="round" stroke-linejoin="round"/>
<path d="M592 133V131" stroke="#292D32" stroke-opacity="0.7" stroke-width="1.5" stroke-linecap="round" stroke-linejoin="round"/>
<path d="M588 133V130" stroke="#292D32" stroke-opacity="0.7" stroke-width="1.5" stroke-linecap="round" stroke-linejoin="round"/>
<path d="M2 207.29V197.71C2 196.38 2.77 196.06 3.71 197L6.3 199.59C6.69 199.98 7.33 199.98 7.71 199.59L11.29 196C11.68 195.61 12.32 195.61 12.7 196L16.29 199.59C16.68 199.98 17.32 199.98 17.7 199.59L20.29 197C21.23 196.06 22 196.38 22 197.71V207.3C22 210.3 20 212.3 17 212.3H7C4.24 212.29 2 210.05 2 207.29Z" stroke="#292D32" stroke-opacity="0.7" stroke-width="1.5" stroke-linecap="round" stroke-linejoin="round"/>
<path d="M80.7 210.98H71.3C70.88 210.98 70.41 210.65 70.27 210.25L66.13 198.67C65.54 197.01 66.23 196.5 67.65 197.52L71.55 200.31C72.2 200.76 72.94 200.53 73.22 199.8L74.98 195.11C75.54 193.61 76.47 193.61 77.03 195.11L78.79 199.8C79.07 200.53 79.81 200.76 80.45 200.31L84.11 197.7C85.67 196.58 86.42 197.15 85.78 198.96L81.74 210.27C81.59 210.65 81.12 210.98 80.7 210.98Z" stroke="#B28089" stroke-opacity="0.5" stroke-width="1.5" stroke-linecap="round" stroke-linejoin="round"/>
<path d="M70.5 214H81.5" stroke="#B28089" stroke-opacity="0.5" stroke-width="1.5" stroke-linecap="round" stroke-linejoin="round"/>
<path d="M73.5 206H78.5" stroke="#B28089" stroke-opacity="0.5" stroke-width="1.5" stroke-linecap="round" stroke-linejoin="round"/>
<path d="M133.15 194V214" stroke="#292D32" stroke-opacity="0.7" stroke-width="1.5" stroke-miterlimit="10" stroke-linecap="round" stroke-linejoin="round"/>
<path d="M133.15 196H144.35C147.05 196 147.65 197.5 145.75 199.4L144.55 200.6C143.75 201.4 143.75 202.7 144.55 203.4L145.75 204.6C147.65 206.5 146.95 208 144.35 208H133.15" stroke="#292D32" stroke-opacity="0.7" stroke-width="1.5" stroke-miterlimit="10" stroke-linecap="round" stroke-linejoin="round"/>
<path d="M268.15 208.5V210.6" stroke="#292D32" stroke-opacity="0.7" stroke-width="1.5" stroke-linecap="round" stroke-linejoin="round"/>
<path d="M263.15 214H273.15V213C273.15 211.9 272.25 211 271.15 211H265.15C264.05 211 263.15 211.9 263.15 213V214V214Z" stroke="#292D32" stroke-opacity="0.7" stroke-width="1.5" stroke-miterlimit="10"/>
<path d="M262.15 214H274.15" stroke="#292D32" stroke-opacity="0.7" stroke-width="1.5" stroke-linecap="round" stroke-linejoin="round"/>
<path d="M268 208C264.13 208 261 204.87 261 201V198C261 195.79 262.79 194 265 194H271C273.21 194 275 195.79 275 198V201C275 204.87 271.87 208 268 208Z" stroke="#292D32" stroke-opacity="0.7" stroke-width="1.5" stroke-linecap="round" stroke-linejoin="round"/>
<path d="M261.47 203.65C260.72 203.41 260.06 202.97 259.54 202.45C258.64 201.45 258.04 200.25 258.04 198.85C258.04 197.45 259.14 196.35 260.54 196.35H261.19C260.99 196.81 260.89 197.32 260.89 197.85V200.85C260.89 201.85 261.1 202.79 261.47 203.65Z" stroke="#292D32" stroke-opacity="0.7" stroke-width="1.5" stroke-linecap="round" stroke-linejoin="round"/>
<path d="M274.53 203.65C275.28 203.41 275.94 202.97 276.46 202.45C277.36 201.45 277.96 200.25 277.96 198.85C277.96 197.45 276.86 196.35 275.46 196.35H274.81C275.01 196.81 275.11 197.32 275.11 197.85V200.85C275.11 201.85 274.9 202.79 274.53 203.65Z" stroke="#292D32" stroke-opacity="0.7" stroke-width="1.5" stroke-linecap="round" stroke-linejoin="round"/>
<path d="M393 214H399C404 214 406 212 406 207V201C406 196 404 194 399 194H393C388 194 386 196 386 201V207C386 212 388 214 393 214Z" stroke="#292D32" stroke-opacity="0.7" stroke-width="1.5" stroke-linecap="round" stroke-linejoin="round"/>
<path d="M391 200.25C392 201.25 393.63 201.25 394.64 200.25" stroke="#292D32" stroke-opacity="0.7" stroke-width="1.5" stroke-miterlimit="10" stroke-linecap="round" stroke-linejoin="round"/>
<path d="M397.36 200.25C398.36 201.25 399.99 201.25 401 200.25" stroke="#292D32" stroke-opacity="0.7" stroke-width="1.5" stroke-miterlimit="10" stroke-linecap="round" stroke-linejoin="round"/>
<path d="M392.4 205H399.6C400.1 205 400.5 205.4 400.5 205.9C400.5 208.39 398.49 210.4 396 210.4C393.51 210.4 391.5 208.39 391.5 205.9C391.5 205.4 391.9 205 392.4 205Z" stroke="#292D32" stroke-opacity="0.7" stroke-width="1.5" stroke-miterlimit="10" stroke-linecap="round" stroke-linejoin="round"/>
<path d="M198.45 194V214" stroke="#B28089" stroke-opacity="0.5" stroke-width="1.5" stroke-miterlimit="10" stroke-linecap="round" stroke-linejoin="round"/>
<path d="M198.95 196L207.05 199.5C210.35 200.9 210.35 203.3 207.25 204.9L198.95 209" stroke="#B28089" stroke-opacity="0.5" stroke-width="1.5" stroke-miterlimit="10" stroke-linecap="round" stroke-linejoin="round"/>
<path d="M522.28 212.25H529C531.76 212.25 534 210.01 534 207.25V200.75C534 197.99 531.76 195.75 529 195.75H522.28C520.87 195.75 519.53 196.34 518.58 197.39L515.05 201.27C513.64 202.82 513.64 205.18 515.05 206.73L518.58 210.61C519.53 211.66 520.87 212.25 522.28 212.25Z" stroke="#292D32" stroke-opacity="0.7" stroke-width="1.5" stroke-linecap="round" stroke-linejoin="round"/>
<path d="M528 206.47L523.06 201.53" stroke="#292D32" stroke-opacity="0.7" stroke-width="1.5" stroke-linecap="round"/>
<path d="M523.06 206.47L528 201.53" stroke="#292D32" stroke-opacity="0.7" stroke-width="1.5" stroke-linecap="round"/>
<path d="M329 214H335C340 214 342 212 342 207V201C342 196 340 194 335 194H329C324 194 322 196 322 201V207C322 212 324 214 329 214Z" stroke="#B28089" stroke-opacity="0.5" stroke-width="1.5" stroke-linecap="round" stroke-linejoin="round"/>
<path d="M335.5 201.75C336.328 201.75 337 201.078 337 200.25C337 199.422 336.328 198.75 335.5 198.75C334.672 198.75 334 199.422 334 200.25C334 201.078 334.672 201.75 335.5 201.75Z" stroke="#B28089" stroke-opacity="0.5" stroke-width="1.5" stroke-miterlimit="10" stroke-linecap="round" stroke-linejoin="round"/>
<path d="M328.5 201.75C329.328 201.75 330 201.078 330 200.25C330 199.422 329.328 198.75 328.5 198.75C327.672 198.75 327 199.422 327 200.25C327 201.078 327.672 201.75 328.5 201.75Z" stroke="#B28089" stroke-opacity="0.5" stroke-width="1.5" stroke-miterlimit="10" stroke-linecap="round" stroke-linejoin="round"/>
<path d="M328.4 205.3H335.6C336.1 205.3 336.5 205.7 336.5 206.2C336.5 208.69 334.49 210.7 332 210.7C329.51 210.7 327.5 208.69 327.5 206.2C327.5 205.7 327.9 205.3 328.4 205.3Z" stroke="#B28089" stroke-opacity="0.5" stroke-width="1.5" stroke-miterlimit="10" stroke-linecap="round" stroke-linejoin="round"/>
<path d="M457 214H463C468 214 470 212 470 207V201C470 196 468 194 463 194H457C452 194 450 196 450 201V207C450 212 452 214 457 214Z" stroke="#B28089" stroke-opacity="0.5" stroke-width="1.5" stroke-linecap="round" stroke-linejoin="round"/>
<path d="M455 200.75C456 199.75 457.63 199.75 458.64 200.75" stroke="#B28089" stroke-opacity="0.5" stroke-width="1.5" stroke-miterlimit="10" stroke-linecap="round" stroke-linejoin="round"/>
<path d="M461.36 200.75C462.36 199.75 463.99 199.75 465 200.75" stroke="#B28089" stroke-opacity="0.5" stroke-width="1.5" stroke-miterlimit="10" stroke-linecap="round" stroke-linejoin="round"/>
<path d="M456.4 209.7H463.6C464.1 209.7 464.5 209.3 464.5 208.8C464.5 206.31 462.49 204.3 460 204.3C457.51 204.3 455.5 206.31 455.5 208.8C455.5 209.3 455.9 209.7 456.4 209.7Z" stroke="#B28089" stroke-opacity="0.5" stroke-width="1.5" stroke-miterlimit="10" stroke-linecap="round" stroke-linejoin="round"/>
<path d="M597.97 271V265C597.97 260 595.97 258 590.97 258H584.97C579.97 258 577.97 260 577.97 265V271C577.97 276 579.97 278 584.97 278H590.97C595.97 278 597.97 276 597.97 271Z" stroke="#292D32" stroke-opacity="0.7" stroke-width="1.5" stroke-linecap="round" stroke-linejoin="round"/>
<path d="M595.72 259.25L579.27 275.7" stroke="#292D32" stroke-opacity="0.7" stroke-width="1.5" stroke-linecap="round" stroke-linejoin="round"/>
<path d="M592.06 274V269" stroke="#292D32" stroke-opacity="0.7" stroke-width="1.5" stroke-miterlimit="10" stroke-linecap="round" stroke-linejoin="round"/>
<path d="M594.5 271.5H589.5" stroke="#292D32" stroke-opacity="0.7" stroke-width="1.5" stroke-miterlimit="10" stroke-linecap="round" stroke-linejoin="round"/>
<path d="M586.5 263.5H581.5" stroke="#292D32" stroke-opacity="0.7" stroke-width="1.5" stroke-miterlimit="10" stroke-linecap="round" stroke-linejoin="round"/>
<path d="M579 199H597" stroke="#B28089" stroke-opacity="0.5" stroke-width="1.5" stroke-linecap="round"/>
<path d="M579 204H597" stroke="#B28089" stroke-opacity="0.5" stroke-width="1.5" stroke-linecap="round"/>
<path d="M579 209H597" stroke="#B28089" stroke-opacity="0.5" stroke-width="1.5" stroke-linecap="round"/>
<path d="M533.93 268.86C533.91 269.05 533.88 269.23 533.83 269.41C532.79 268.53 531.44 268 529.97 268C526.66 268 523.97 270.69 523.97 274C523.97 275.47 524.5 276.82 525.38 277.86C525.2 277.91 525.02 277.94 524.83 277.96C523.98 278.04 523.11 278 522.21 277.85C518.1 277.15 514.79 273.82 514.11 269.7C512.98 262.85 518.82 257.01 525.67 258.14C529.79 258.82 533.12 262.13 533.82 266.24C533.97 267.14 534.01 268.01 533.93 268.86Z" stroke="#B28089" stroke-opacity="0.5" stroke-width="1.5" stroke-linecap="round" stroke-linejoin="round"/>
<path d="M533.83 269.41C533.69 269.9 533.43 270.34 533.06 270.71L526.68 277.09C526.31 277.46 525.87 277.72 525.38 277.86C524.5 276.82 523.97 275.47 523.97 274C523.97 270.69 526.66 268 529.97 268C531.44 268 532.79 268.53 533.83 269.41Z" stroke="#B28089" stroke-opacity="0.5" stroke-width="1.5" stroke-linecap="round" stroke-linejoin="round"/>
<path d="M648.38 268L650.79 270.42L655.62 265.58" stroke="#B28089" stroke-opacity="0.5" stroke-width="1.5" stroke-linecap="round" stroke-linejoin="round"/>
<path d="M650.75 258.45C651.44 257.86 652.57 257.86 653.27 258.45L654.85 259.81C655.15 260.07 655.71 260.28 656.11 260.28H657.81C658.87 260.28 659.74 261.15 659.74 262.21V263.91C659.74 264.3 659.95 264.87 660.21 265.17L661.57 266.75C662.16 267.44 662.16 268.57 661.57 269.27L660.21 270.85C659.95 271.15 659.74 271.71 659.74 272.11V273.81C659.74 274.87 658.87 275.74 657.81 275.74H656.11C655.72 275.74 655.15 275.95 654.85 276.21L653.27 277.57C652.58 278.16 651.45 278.16 650.75 277.57L649.17 276.21C648.87 275.95 648.31 275.74 647.91 275.74H646.18C645.12 275.74 644.25 274.87 644.25 273.81V272.1C644.25 271.71 644.04 271.15 643.79 270.85L642.44 269.26C641.86 268.57 641.86 267.45 642.44 266.76L643.79 265.17C644.04 264.87 644.25 264.31 644.25 263.92V262.2C644.25 261.14 645.12 260.27 646.18 260.27H647.91C648.3 260.27 648.87 260.06 649.17 259.8L650.75 258.45Z" stroke="#B28089" stroke-opacity="0.5" stroke-width="1.5" stroke-linecap="round" stroke-linejoin="round"/>
<path d="M395.97 278C401.493 278 405.97 273.523 405.97 268C405.97 262.477 401.493 258 395.97 258C390.447 258 385.97 262.477 385.97 268C385.97 273.523 390.447 278 395.97 278Z" stroke="#B28089" stroke-opacity="0.5" stroke-width="1.5" stroke-linecap="round" stroke-linejoin="round"/>
<path d="M391.21 272C392.26 273.51 394.02 274.5 396 274.5C397.98 274.5 399.73 273.51 400.79 272" stroke="#B28089" stroke-opacity="0.5" stroke-width="1.5" stroke-linecap="round" stroke-linejoin="round"/>
<path d="M466.97 278H452.97C449.97 278 449.97 276.65 449.97 275V274C449.97 273.45 450.42 273 450.97 273H468.97C469.52 273 469.97 273.45 469.97 274V275C469.97 276.65 469.97 278 466.97 278Z" stroke="#292D32" stroke-opacity="0.7" stroke-width="1.5" stroke-linecap="round" stroke-linejoin="round"/>
<path d="M468.72 269V273H451.27V269C451.27 265.16 453.98 261.95 457.59 261.18C458.13 261.06 458.69 261 459.27 261H460.72C461.3 261 461.87 261.06 462.41 261.18C466.02 261.96 468.72 265.16 468.72 269Z" stroke="#292D32" stroke-opacity="0.7" stroke-width="1.5" stroke-linecap="round" stroke-linejoin="round"/>
<path d="M462.5 260.5C462.5 260.74 462.47 260.96 462.41 261.18C461.87 261.06 461.3 261 460.72 261H459.27C458.69 261 458.13 261.06 457.59 261.18C457.53 260.96 457.5 260.74 457.5 260.5C457.5 259.12 458.62 258 460 258C461.38 258 462.5 259.12 462.5 260.5Z" stroke="#292D32" stroke-opacity="0.7" stroke-width="1.5" stroke-linecap="round" stroke-linejoin="round"/>
<path d="M463 267H457" stroke="#292D32" stroke-opacity="0.7" stroke-width="1.5" stroke-linecap="round" stroke-linejoin="round"/>
<path d="M324.41 272.75C324.17 275.64 326.35 278 329.25 278H334.04C337.3 278 339.54 275.37 339 272.15C338.43 268.77 335.17 266 331.74 266C328.02 266 324.72 269.04 324.41 272.75Z" stroke="#292D32" stroke-opacity="0.7" stroke-width="1.5" stroke-linecap="round" stroke-linejoin="round"/>
<path d="M330.47 263.5C331.851 263.5 332.97 262.381 332.97 261C332.97 259.619 331.851 258.5 330.47 258.5C329.089 258.5 327.97 259.619 327.97 261C327.97 262.381 329.089 263.5 330.47 263.5Z" stroke="#292D32" stroke-opacity="0.7" stroke-width="1.5" stroke-linecap="round" stroke-linejoin="round"/>
<path d="M337.3 264.7C338.405 264.7 339.3 263.805 339.3 262.7C339.3 261.595 338.405 260.7 337.3 260.7C336.195 260.7 335.3 261.595 335.3 262.7C335.3 263.805 336.195 264.7 337.3 264.7Z" stroke="#292D32" stroke-opacity="0.7" stroke-width="1.5" stroke-linecap="round" stroke-linejoin="round"/>
<path d="M341 268.7C341.828 268.7 342.5 268.028 342.5 267.2C342.5 266.372 341.828 265.7 341 265.7C340.172 265.7 339.5 266.372 339.5 267.2C339.5 268.028 340.172 268.7 341 268.7Z" stroke="#292D32" stroke-opacity="0.7" stroke-width="1.5" stroke-linecap="round" stroke-linejoin="round"/>
<path d="M323.97 266.7C325.075 266.7 325.97 265.805 325.97 264.7C325.97 263.595 325.075 262.7 323.97 262.7C322.865 262.7 321.97 263.595 321.97 264.7C321.97 265.805 322.865 266.7 323.97 266.7Z" stroke="#292D32" stroke-opacity="0.7" stroke-width="1.5" stroke-linecap="round" stroke-linejoin="round"/>
<path d="M4.02 261.97C2.75 263.65 2 265.74 2 268C2 273.52 6.48 278 12 278C17.52 278 22 273.52 22 268C22 262.48 17.52 258 12 258" stroke="#B28089" stroke-opacity="0.5" stroke-width="1.5" stroke-linecap="round" stroke-linejoin="round"/>
<path d="M5 268C5 271.87 8.13 275 12 275C15.87 275 19 271.87 19 268C19 264.13 15.87 261 12 261" stroke="#B28089" stroke-opacity="0.5" stroke-width="1.5" stroke-linecap="round" stroke-linejoin="round"/>
<path d="M12 272C14.21 272 16 270.21 16 268C16 265.79 14.21 264 12 264" stroke="#B28089" stroke-opacity="0.5" stroke-width="1.5" stroke-linecap="round" stroke-linejoin="round"/>
<path d="M273.79 266.47V273.79C273.79 276.12 271.9 278 269.58 278H262.21C259.89 278 258 276.11 258 273.79V266.47C258 264.14 259.89 262.26 262.21 262.26H269.58C271.9 262.26 273.79 264.15 273.79 266.47Z" stroke="#B28089" stroke-opacity="0.5" stroke-width="1.5" stroke-linecap="round" stroke-linejoin="round"/>
<path d="M261.5 260V258.25" stroke="#B28089" stroke-opacity="0.5" stroke-width="1.5" stroke-linecap="round" stroke-linejoin="round"/>
<path d="M265.5 260V258.25" stroke="#B28089" stroke-opacity="0.5" stroke-width="1.5" stroke-linecap="round" stroke-linejoin="round"/>
<path d="M269.5 260V258.25" stroke="#B28089" stroke-opacity="0.5" stroke-width="1.5" stroke-linecap="round" stroke-linejoin="round"/>
<path d="M278 269.16C278 271.48 276.11 273.37 273.79 273.37V264.95C276.11 264.95 278 266.83 278 269.16Z" stroke="#B28089" stroke-opacity="0.5" stroke-width="1.5" stroke-linecap="round" stroke-linejoin="round"/>
<path d="M258 268H273.51" stroke="#B28089" stroke-opacity="0.5" stroke-width="1.5" stroke-linecap="round" stroke-linejoin="round"/>
<path d="M83.5 266.22V275C83.5 277 83 278 80.5 278H71.5C69 278 68.5 277 68.5 275V266.22" stroke="#292D32" stroke-opacity="0.7" stroke-width="1.5" stroke-linecap="round" stroke-linejoin="round"/>
<path d="M69 258H83C85 258 86 259 86 261V263C86 265 85 266 83 266H69C67 266 66 265 66 263V261C66 259 67 258 69 258Z" stroke="#292D32" stroke-opacity="0.7" stroke-width="1.5" stroke-linecap="round" stroke-linejoin="round"/>
<path d="M74.1801 270H77.8201" stroke="#292D32" stroke-opacity="0.7" stroke-width="1.5" stroke-linecap="round" stroke-linejoin="round"/>
<path d="M10.75 322.45C11.45 321.86 12.58 321.86 13.26 322.45L14.84 323.8C15.14 324.05 15.71 324.26 16.11 324.26H17.81C18.87 324.26 19.74 325.13 19.74 326.19V327.89C19.74 328.29 19.95 328.85 20.2 329.15L21.55 330.73C22.14 331.43 22.14 332.56 21.55 333.24L20.2 334.82C19.95 335.12 19.74 335.68 19.74 336.08V337.78C19.74 338.84 18.87 339.71 17.81 339.71H16.11C15.71 339.71 15.15 339.92 14.85 340.17L13.27 341.52C12.57 342.11 11.44 342.11 10.76 341.52L9.18001 340.17C8.88001 339.92 8.31 339.71 7.92 339.71H6.17C5.11 339.71 4.24 338.84 4.24 337.78V336.07C4.24 335.68 4.04 335.11 3.79 334.82L2.44 333.23C1.86 332.54 1.86 331.42 2.44 330.73L3.79 329.14C4.04 328.84 4.24 328.28 4.24 327.89V326.2C4.24 325.14 5.11 324.27 6.17 324.27H7.9C8.3 324.27 8.86 324.06 9.16 323.81L10.75 322.45Z" stroke="#292D32" stroke-opacity="0.7" stroke-width="1.5" stroke-linecap="round" stroke-linejoin="round"/>
<path d="M12 328.13V332.96" stroke="#292D32" stroke-opacity="0.7" stroke-width="1.5" stroke-linecap="round" stroke-linejoin="round"/>
<path d="M11.9945 336H12.0035" stroke="#292D32" stroke-opacity="0.7" stroke-width="2" stroke-linecap="round" stroke-linejoin="round"/>
<path d="M74.75 322.45C75.45 321.86 76.58 321.86 77.26 322.45L78.84 323.8C79.14 324.05 79.71 324.26 80.11 324.26H81.81C82.87 324.26 83.74 325.13 83.74 326.19V327.89C83.74 328.29 83.95 328.85 84.2 329.15L85.55 330.73C86.14 331.43 86.14 332.56 85.55 333.24L84.2 334.82C83.95 335.12 83.74 335.68 83.74 336.08V337.78C83.74 338.84 82.87 339.71 81.81 339.71H80.11C79.71 339.71 79.15 339.92 78.85 340.17L77.27 341.52C76.57 342.11 75.44 342.11 74.76 341.52L73.18 340.17C72.88 339.92 72.31 339.71 71.92 339.71H70.17C69.11 339.71 68.24 338.84 68.24 337.78V336.07C68.24 335.68 68.04 335.11 67.79 334.82L66.44 333.23C65.86 332.54 65.86 331.42 66.44 330.73L67.79 329.14C68.04 328.84 68.24 328.28 68.24 327.89V326.2C68.24 325.14 69.11 324.27 70.17 324.27H71.9C72.3 324.27 72.86 324.06 73.16 323.81L74.75 322.45Z" stroke="#B28089" stroke-opacity="0.5" stroke-width="1.5" stroke-linecap="round" stroke-linejoin="round"/>
<path d="M72.5 335.94L76 328.06L79.5 335.94" stroke="#B28089" stroke-opacity="0.5" stroke-width="1.5" stroke-linejoin="bevel"/>
<path d="M77.75 333.31H74.25" stroke="#B28089" stroke-opacity="0.5" stroke-width="1.5" stroke-linecap="round" stroke-linejoin="round"/>
<path d="M201 278H207C212 278 214 276 214 271V265C214 260 212 258 207 258H201C196 258 194 260 194 265V271C194 276 196 278 201 278Z" stroke="#292D32" stroke-opacity="0.7" stroke-width="1.5" stroke-linecap="round" stroke-linejoin="round"/>
<path d="M204 271.5C205.933 271.5 207.5 269.933 207.5 268C207.5 266.067 205.933 264.5 204 264.5C202.067 264.5 200.5 266.067 200.5 268C200.5 269.933 202.067 271.5 204 271.5Z" stroke="#292D32" stroke-opacity="0.7" stroke-width="1.5" stroke-linecap="round" stroke-linejoin="round"/>
<path d="M209.636 263H209.648" stroke="#292D32" stroke-opacity="0.7" stroke-width="2" stroke-linecap="round" stroke-linejoin="round"/>
<path d="M140 341.41H133.94C130.47 341.41 129.02 338.93 130.7 335.9L133.82 330.28L136.76 325C138.54 321.79 141.46 321.79 143.24 325L146.18 330.29L149.3 335.91C150.98 338.94 149.52 341.42 146.06 341.42H140V341.41Z" stroke="#292D32" stroke-opacity="0.7" stroke-width="1.5" stroke-linecap="round" stroke-linejoin="round"/>
<path d="M149.44 340L140 333.39L130.56 340" stroke="#292D32" stroke-opacity="0.7" stroke-width="1.5" stroke-linecap="round" stroke-linejoin="round"/>
<path d="M140 323V333.39" stroke="#292D32" stroke-opacity="0.7" stroke-width="1.5" stroke-linecap="round" stroke-linejoin="round"/>
<path d="M337.8 322.1L327.87 324.59C326.42 324.95 324.95 326.42 324.59 327.87L322.1 337.8C321.35 340.8 323.19 342.65 326.2 341.9L336.13 339.42C337.57 339.06 339.05 337.58 339.41 336.14L341.9 326.2C342.65 323.2 340.8 321.35 337.8 322.1Z" stroke="#B28089" stroke-opacity="0.5" stroke-width="1.5" stroke-linecap="round" stroke-linejoin="round"/>
<path d="M332 335.5C333.933 335.5 335.5 333.933 335.5 332C335.5 330.067 333.933 328.5 332 328.5C330.067 328.5 328.5 330.067 328.5 332C328.5 333.933 330.067 335.5 332 335.5Z" stroke="#B28089" stroke-opacity="0.5" stroke-width="1.5" stroke-linecap="round" stroke-linejoin="round"/>
<path d="M266 337.5H270" stroke="#292D32" stroke-opacity="0.7" stroke-width="1.5" stroke-linecap="round" stroke-linejoin="round"/>
<path d="M258 337.5V327.5C258 323.5 259 322.5 263 322.5" stroke="#292D32" stroke-opacity="0.7" stroke-width="1.5" stroke-linecap="round" stroke-linejoin="round"/>
<path d="M278 337.5V327.5C278 323.5 277 322.5 273 322.5" stroke="#292D32" stroke-opacity="0.7" stroke-width="1.5" stroke-linecap="round" stroke-linejoin="round"/>
<path d="M266 335.91V339.2C266 341.2 265.2 342 263.2 342H260.8C258.8 342 258 341.2 258 339.2V335.91C258 333.91 258.8 333.11 260.8 333.11H263.2C265.2 333.11 266 333.91 266 335.91Z" stroke="#292D32" stroke-opacity="0.7" stroke-width="1.5" stroke-linecap="round" stroke-linejoin="round"/>
<path d="M278 335.91V339.2C278 341.2 277.2 342 275.2 342H272.8C270.8 342 270 341.2 270 339.2V335.91C270 333.91 270.8 333.11 272.8 333.11H275.2C277.2 333.11 278 333.91 278 335.91Z" stroke="#292D32" stroke-opacity="0.7" stroke-width="1.5" stroke-linecap="round" stroke-linejoin="round"/>
<path d="M453.4 322.1H466.6C467.7 322.1 468.6 323 468.6 324.1V326.3C468.6 327.1 468.1 328.1 467.6 328.6L463.3 332.4C462.7 332.9 462.3 333.9 462.3 334.7V339C462.3 339.6 461.9 340.4 461.4 340.7L460 341.6C458.7 342.4 456.9 341.5 456.9 339.9V334.6C456.9 333.9 456.5 333 456.1 332.5L452.3 328.5C451.8 328 451.4 327.1 451.4 326.5V324.2C451.4 323 452.3 322.1 453.4 322.1Z" stroke="#B28089" stroke-opacity="0.5" stroke-width="1.5" stroke-miterlimit="10" stroke-linecap="round" stroke-linejoin="round"/>
<path d="M458.93 322.1L454 330" stroke="#B28089" stroke-opacity="0.5" stroke-width="1.5" stroke-miterlimit="10" stroke-linecap="round" stroke-linejoin="round"/>
<path d="M520.16 326.65H527.83C528.47 326.65 528.99 327.17 528.99 327.81V329.09C528.99 329.56 528.7 330.14 528.41 330.43L525.91 332.64C525.56 332.93 525.33 333.51 525.33 333.98V336.48C525.33 336.83 525.1 337.29 524.81 337.47L524 337.98C523.24 338.45 522.2 337.92 522.2 336.99V333.91C522.2 333.5 521.97 332.98 521.73 332.69L519.52 330.36C519.23 330.08 519 329.55 519 329.2V327.87C519 327.17 519.52 326.65 520.16 326.65Z" stroke="#292D32" stroke-opacity="0.7" stroke-width="1.5" stroke-miterlimit="10" stroke-linecap="round" stroke-linejoin="round"/>
<path d="M521 342H527C532 342 534 340 534 335V329C534 324 532 322 527 322H521C516 322 514 324 514 329V335C514 340 516 342 521 342Z" stroke="#292D32" stroke-opacity="0.7" stroke-width="1.5" stroke-linecap="round" stroke-linejoin="round"/>
<path d="M401.18 338C403.58 338 404.18 336.65 404.18 335V329C404.18 327.35 403.58 326 401.18 326C398.78 326 398.18 327.35 398.18 329V335C398.18 336.65 398.78 338 401.18 338Z" stroke="#292D32" stroke-opacity="0.7" stroke-width="1.5" stroke-linecap="round" stroke-linejoin="round"/>
<path d="M390.82 338C388.42 338 387.82 336.65 387.82 335V329C387.82 327.35 388.42 326 390.82 326C393.22 326 393.82 327.35 393.82 329V335C393.82 336.65 393.22 338 390.82 338Z" stroke="#292D32" stroke-opacity="0.7" stroke-width="1.5" stroke-linecap="round" stroke-linejoin="round"/>
<path d="M393.82 332H398.18" stroke="#292D32" stroke-opacity="0.7" stroke-width="1.5" stroke-linecap="round" stroke-linejoin="round"/>
<path d="M406.5 334.5V329.5" stroke="#292D32" stroke-opacity="0.7" stroke-width="1.5" stroke-linecap="round" stroke-linejoin="round"/>
<path d="M385.5 334.5V329.5" stroke="#292D32" stroke-opacity="0.7" stroke-width="1.5" stroke-linecap="round" stroke-linejoin="round"/>
<path d="M204.92 322.26L211.43 325.77C212.19 326.18 212.19 327.35 211.43 327.76L204.92 331.27C204.34 331.58 203.66 331.58 203.08 331.27L196.57 327.76C195.81 327.35 195.81 326.18 196.57 325.77L203.08 322.26C203.66 321.95 204.34 321.95 204.92 322.26Z" stroke="#B28089" stroke-opacity="0.5" stroke-width="1.5" stroke-linecap="round" stroke-linejoin="round"/>
<path d="M195.61 330.13L201.66 333.16C202.41 333.54 202.89 334.31 202.89 335.15V340.87C202.89 341.7 202.02 342.23 201.28 341.86L195.23 338.83C194.48 338.45 194 337.68 194 336.84V331.12C194 330.29 194.87 329.76 195.61 330.13Z" stroke="#B28089" stroke-opacity="0.5" stroke-width="1.5" stroke-linecap="round" stroke-linejoin="round"/>
<path d="M212.39 330.13L206.34 333.16C205.59 333.54 205.11 334.31 205.11 335.15V340.87C205.11 341.7 205.98 342.23 206.72 341.86L212.77 338.83C213.52 338.45 214 337.68 214 336.84V331.12C214 330.29 213.13 329.76 212.39 330.13Z" stroke="#B28089" stroke-opacity="0.5" stroke-width="1.5" stroke-linecap="round" stroke-linejoin="round"/>
<path d="M579 328.25V335.75" stroke="#B28089" stroke-opacity="0.5" stroke-width="1.5" stroke-linecap="round" stroke-linejoin="round"/>
<path d="M583.5 325.75V338.25" stroke="#B28089" stroke-opacity="0.5" stroke-width="1.5" stroke-linecap="round" stroke-linejoin="round"/>
<path d="M588 323.25V340.75" stroke="#B28089" stroke-opacity="0.5" stroke-width="1.5" stroke-linecap="round" stroke-linejoin="round"/>
<path d="M592.5 325.75V338.25" stroke="#B28089" stroke-opacity="0.5" stroke-width="1.5" stroke-linecap="round" stroke-linejoin="round"/>
<path d="M597 328.25V335.75" stroke="#B28089" stroke-opacity="0.5" stroke-width="1.5" stroke-linecap="round" stroke-linejoin="round"/>
<path d="M140 278C145.52 278 150 273.52 150 268C150 262.48 145.52 258 140 258C134.48 258 130 262.48 130 268C130 273.52 134.48 278 140 278Z" stroke="#B28089" stroke-opacity="0.5" stroke-width="1.5" stroke-linecap="round" stroke-linejoin="round"/>
<path d="M140 272C142.21 272 144 270.21 144 268C144 265.79 142.21 264 140 264C137.79 264 136 265.79 136 268C136 270.21 137.79 272 140 272Z" stroke="#B28089" stroke-opacity="0.5" stroke-width="1.5" stroke-linecap="round" stroke-linejoin="round"/>
<path d="M149.17 264C146.15 263.34 143.02 263.34 140 264" stroke="#B28089" stroke-opacity="0.5" stroke-width="1.5" stroke-linecap="round" stroke-linejoin="round"/>
<path d="M131.95 262.06L131.97 262.12C132.98 265.01 134.53 267.69 136.54 270" stroke="#B28089" stroke-opacity="0.5" stroke-width="1.5" stroke-linecap="round" stroke-linejoin="round"/>
<path d="M138.88 277.94C140.94 275.67 142.49 272.99 143.43 270.08L143.46 270" stroke="#B28089" stroke-opacity="0.5" stroke-width="1.5" stroke-linecap="round" stroke-linejoin="round"/>
</svg>
